<svg width="220" height="220" viewBox="0 0 220 220" fill="none" xmlns="http://www.w3.org/2000/svg">
<g clip-path="url(#clip0_24_481)">
<mask id="mask0_24_481" style="mask-type:luminance" maskUnits="userSpaceOnUse" x="-3" y="18" width="223" height="106">
<path d="M-2.68652 18.8509H219.943V123.349H-2.68652V18.8509Z" fill="white"/>
</mask>
<g mask="url(#mask0_24_481)">
<path d="M149.888 67.419C148.991 66.521 148.459 65.3028 148.408 64.0381C148.393 63.9382 148.378 63.838 148.367 63.7377C148.349 63.5744 148.337 63.4112 148.327 63.2476C148.2 62.8468 148.085 62.4436 147.966 62.0399C147.925 61.943 147.884 61.8469 147.84 61.7516C147.822 61.721 147.803 61.6904 147.785 61.6601C147.51 61.29 147.218 60.9342 146.954 60.5561C146.616 60.0702 146.276 59.586 146.024 59.2167C145.843 58.9574 145.657 58.7077 145.449 58.469C145.219 58.2046 145.031 57.9033 144.843 57.6041C144.813 57.5651 144.784 57.5269 144.754 57.4883C144.666 57.3914 144.579 57.294 144.492 57.1963C144.334 57.0221 144.164 56.8597 143.992 56.6998C143.875 56.6004 143.757 56.5014 143.637 56.4065C143.323 56.2085 143.014 56.0054 142.721 55.7746C142.623 55.697 142.523 55.6206 142.423 55.5459C142.112 55.3567 141.794 55.1813 141.483 54.9908C141.07 54.7373 140.677 54.4599 140.251 54.2291C140.002 54.1033 139.754 53.9765 139.506 53.849C139.149 53.6946 138.785 53.5628 138.425 53.4159C138.104 53.2854 137.792 53.1356 137.474 52.998C137.435 52.9867 137.396 52.9753 137.357 52.9644C136.84 52.8205 136.335 52.638 135.841 52.4282C135.595 52.3237 135.346 52.2267 135.096 52.1344C134.145 51.8151 133.196 51.492 132.252 51.1538C131.61 50.941 130.963 50.7446 130.341 50.4782C129.806 50.2487 129.274 50.0158 128.971 49.892C128.433 49.7044 127.898 49.5114 127.374 49.2852C126.923 49.0901 126.473 48.9 126.015 48.7217C125.56 48.5438 125.12 48.3306 124.677 48.1258C124.239 47.9236 123.79 47.749 123.351 47.5505C122.664 47.24 121.997 46.8838 121.329 46.5317C120.838 46.2728 120.337 46.0345 119.849 45.7693C118.806 45.2028 117.805 44.5196 116.844 43.8222C116.375 43.5256 115.898 43.2436 115.443 42.9213C115.05 42.6423 114.675 42.336 114.523 42.2323C114.073 41.9277 113.631 41.6205 113.211 41.2739C112.728 40.8757 112.243 40.4821 111.783 40.0574C111.228 39.5442 110.682 39.0193 110.126 38.507C110.084 38.4713 110.042 38.4356 110 38.4C109.959 38.4352 109.917 38.4704 109.876 38.5057C109.319 39.0185 108.774 39.5438 108.218 40.0574C107.757 40.4821 107.272 40.8757 106.79 41.2739C106.381 41.6109 105.952 41.9105 105.724 42.0657C105.325 42.336 104.951 42.6423 104.557 42.9213C104.102 43.2436 103.626 43.5256 103.157 43.8222C102.196 44.5196 101.194 45.2028 100.151 45.7693C99.6633 46.0345 99.1623 46.2728 98.6713 46.5317C98.0037 46.8838 97.3369 47.24 96.6496 47.5505C96.2103 47.749 95.7608 47.9236 95.3236 48.1258C94.8805 48.3306 94.4403 48.5438 93.9854 48.7217C93.5276 48.9 93.0774 49.0901 92.6263 49.2852C92.1018 49.5114 91.568 49.7044 91.271 49.8085C90.7263 50.0158 90.195 50.2487 89.6592 50.4782C89.0373 50.7446 88.3907 50.941 87.7491 51.1538C86.8045 51.492 85.8554 51.8151 84.9049 52.1344C84.6544 52.2267 84.406 52.3237 84.1593 52.4282C83.6658 52.638 83.161 52.8205 82.644 52.9644C82.6046 52.9753 82.5656 52.9867 82.5266 52.998C82.2085 53.1356 81.8963 53.2854 81.5761 53.4159C81.2157 53.5628 80.8519 53.6946 80.4948 53.849C80.2468 53.9765 79.9984 54.1033 79.7495 54.2291C79.3232 54.4599 78.9304 54.7373 78.5175 54.9908C78.2066 55.1813 77.8885 55.3567 77.5776 55.5459C77.4773 55.6206 77.3778 55.697 77.2797 55.7746C76.9868 56.0054 76.6771 56.2085 76.3636 56.4065C76.244 56.5014 76.1257 56.6004 76.0091 56.6998C75.8362 56.8597 75.6671 57.0221 75.508 57.1963C75.4216 57.294 75.3343 57.3914 75.2466 57.4883C75.2168 57.5269 75.1875 57.5651 75.1581 57.6041C74.9697 57.9033 74.7817 58.2046 74.5513 58.469C74.3432 58.7077 74.1577 58.9574 74.057 59.0967C73.7238 59.586 73.3848 60.0702 73.0466 60.5561C72.7831 60.9342 72.4906 61.29 72.2162 61.6601C72.1973 61.6904 72.1788 61.721 72.1603 61.7516C72.1171 61.8469 72.0747 61.943 72.0349 62.0399C71.9157 62.4436 71.8003 62.8468 71.674 63.2476C71.6639 63.4112 71.6518 63.5744 71.6341 63.7377C71.6228 63.838 71.6081 63.9382 71.593 64.0381C71.5414 65.3028 71.0098 66.521 70.1126 67.419C69.1668 68.3639 67.8651 68.9036 66.5287 68.9036C64.5124 68.9036 62.6409 67.6636 61.8554 65.806C61.4639 64.8799 61.3737 63.8434 61.5205 62.8531C61.539 62.7276 61.5575 62.6022 61.5738 62.4767C61.5818 62.1985 61.594 61.9199 61.6477 61.6484C61.7064 61.3505 61.7501 61.0429 61.839 60.7508C61.8869 60.5922 61.9406 60.4353 61.996 60.2796C62.1193 59.8805 62.2196 59.4744 62.3401 59.0749C62.4718 58.6385 62.635 58.2075 62.8297 57.7942C63.0203 57.388 63.199 56.9743 63.434 56.5903C63.8032 55.9852 64.2174 55.4091 64.6597 54.8556C64.9534 54.4889 65.2203 54.0949 65.4897 53.7084C65.702 53.3878 65.9143 53.0668 66.1397 52.755C66.2962 52.5389 66.4716 52.3405 66.6327 52.1294C66.8094 51.8583 66.9894 51.5889 67.1887 51.3338C67.4258 51.0308 67.6885 50.7497 67.9482 50.466C68.1438 50.2348 68.3406 50.0028 68.5596 49.7946C68.8642 49.5051 69.1773 49.224 69.4962 48.9495C69.6674 48.8018 69.8449 48.6621 70.0211 48.5203C70.1042 48.454 70.1827 48.3805 70.2628 48.3105C70.4878 48.1128 70.7408 47.9697 70.993 47.8224C71.0761 47.7578 71.1579 47.6915 71.2405 47.6265C71.5355 47.3936 71.8561 47.1846 72.1679 46.9786C72.4843 46.7684 72.8133 46.5829 73.1414 46.392C73.4423 46.217 73.7326 46.0282 74.0213 45.8343C74.4145 45.5704 74.8421 45.3635 75.2672 45.1562C75.4694 45.0517 75.6709 44.9456 75.8731 44.8415C76.4027 44.5696 76.9272 44.3434 77.4823 44.1357C77.8126 44.0115 78.1302 43.8554 78.4508 43.7089C78.9502 43.4811 79.4743 43.3372 79.9958 43.1806C80.2627 43.0736 80.5262 42.9578 80.7931 42.8521C81.2719 42.6628 81.7658 42.508 82.2542 42.3443C82.6952 42.1966 83.1354 42.0464 83.5752 41.8954C84.1605 41.6864 84.7455 41.4795 85.3367 41.2882C85.6892 41.148 86.0341 40.9923 86.3849 40.8451C86.9413 40.6109 87.5061 40.4066 87.7608 40.3172C88.222 40.143 88.6714 39.9483 89.1217 39.7486C89.5866 39.5413 90.0687 39.3688 90.5387 39.1729C91.0066 38.9778 91.4577 38.7432 91.9243 38.5443C92.3082 38.3811 92.6892 38.2153 93.0661 38.0374C93.6959 37.7151 94.3304 37.3992 94.9518 37.0614C95.5384 36.7429 96.1032 36.3829 96.6605 36.014C97.0944 35.7064 97.5291 35.4018 97.9735 35.1081C98.1879 34.9658 98.4111 34.8366 98.6314 34.7023C98.7787 34.594 98.9243 34.4845 99.0704 34.3741C99.3477 34.1639 99.6352 33.9675 99.9239 33.7733C100.357 33.4695 100.766 33.1237 101.169 32.7792C101.549 32.4317 101.933 32.0872 102.302 31.7293C102.766 31.2811 103.25 30.8573 103.737 30.4365C103.904 30.2804 104.068 30.1218 104.227 29.9589C104.313 29.8494 104.394 29.7378 104.474 29.6228C104.54 29.5263 104.61 29.4327 104.681 29.3396C104.708 29.2884 104.737 29.2376 104.767 29.1877C104.866 29.0224 104.96 28.8822 105.056 28.7525C105.286 28.3392 105.554 27.9591 105.9 27.6133C106.361 27.1521 106.911 26.7812 107.511 26.5269C108.296 26.195 109.158 26.0716 110 26.1564C110.842 26.0716 111.704 26.195 112.489 26.5269C113.09 26.7812 113.639 27.1521 114.1 27.6133C114.446 27.9591 114.714 28.3392 114.945 28.7525C115.041 28.8822 115.135 29.0224 115.234 29.1877C115.263 29.2376 115.292 29.2884 115.32 29.3396C115.39 29.4327 115.46 29.5263 115.526 29.6228C115.606 29.7378 115.688 29.8494 115.773 29.9589C115.933 30.1218 116.097 30.2804 116.263 30.4365C116.751 30.8573 117.234 31.2811 117.698 31.7293C118.068 32.0872 118.452 32.4317 118.831 32.7792C119.235 33.1237 119.644 33.4695 120.077 33.7733C120.365 33.9675 120.653 34.1639 120.93 34.3741C121.076 34.4845 121.222 34.594 121.369 34.7023C121.59 34.8366 121.813 34.9658 122.028 35.1081C122.472 35.4018 122.906 35.7064 123.34 36.014C123.897 36.3829 124.462 36.7429 125.048 37.0614C125.671 37.3996 126.306 37.716 126.938 38.0387C127.314 38.2166 127.693 38.3815 128.076 38.5443C128.543 38.7432 128.994 38.9778 129.462 39.1729C129.932 39.3688 130.414 39.5413 130.879 39.7486C131.329 39.9483 131.779 40.143 131.925 40.2077C132.495 40.4066 133.059 40.6109 133.616 40.8451C133.967 40.9923 134.311 41.148 134.664 41.2882C135.255 41.4795 135.84 41.6864 136.425 41.8954C136.865 42.0464 137.305 42.1966 137.746 42.3443C138.235 42.508 138.729 42.6628 139.208 42.8521C139.474 42.9578 139.738 43.0736 140.005 43.1806C140.526 43.3372 141.05 43.4811 141.55 43.7089C141.87 43.8554 142.188 44.0115 142.518 44.1357C143.073 44.3434 143.598 44.5696 144.128 44.8415C144.329 44.9451 144.53 45.0509 144.731 45.1554C145.157 45.3627 145.585 45.5699 145.979 45.8343C146.268 46.0282 146.558 46.217 146.859 46.392C147.187 46.5829 147.516 46.7684 147.833 46.9786C148.145 47.1846 148.465 47.3936 148.76 47.6265C148.843 47.6915 148.925 47.7578 149.007 47.8224C149.26 47.9697 149.513 48.1128 149.738 48.3105C149.818 48.3805 149.896 48.454 149.98 48.5203C150.156 48.6621 150.333 48.8018 150.504 48.9495C150.823 49.224 151.136 49.5051 151.441 49.7946C151.66 50.0028 151.856 50.2348 152.052 50.466C152.312 50.7497 152.575 51.0308 152.812 51.3338C153.011 51.5881 153.19 51.8571 153.367 52.1277C153.528 52.3396 153.704 52.5385 153.861 52.755C154.086 53.0668 154.299 53.3878 154.511 53.7084C154.78 54.0949 155.047 54.4889 155.341 54.8556C155.783 55.4091 156.197 55.9852 156.567 56.5903C156.802 56.9743 156.98 57.388 157.171 57.7942C157.365 58.2075 157.529 58.6385 157.661 59.0749C157.781 59.4744 157.881 59.8805 158.005 60.2796C158.06 60.4353 158.113 60.5922 158.162 60.7508C158.251 61.0429 158.294 61.3505 158.353 61.6484C158.407 61.9199 158.419 62.1985 158.427 62.4767C158.443 62.6022 158.462 62.7276 158.48 62.8531C158.627 63.8434 158.537 64.8799 158.145 65.806C157.359 67.6636 155.488 68.9036 153.472 68.9036C152.135 68.9036 150.833 68.3639 149.888 67.419Z" fill="white"/>
<path d="M148.446 63.6138C148.444 63.6065 148.441 63.5991 148.439 63.5918C148.43 63.6562 148.422 63.7207 148.413 63.7851C148.426 63.9777 148.439 64.1704 148.452 64.3629C148.43 64.1539 148.39 63.9471 148.367 63.7377C148.349 63.5745 148.337 63.411 148.327 63.2473C148.2 62.8462 148.085 62.4427 147.965 62.0382C147.925 61.9421 147.883 61.8466 147.84 61.7517C147.822 61.7215 147.804 61.6913 147.785 61.6614C147.511 61.291 147.218 60.9348 146.954 60.5561C146.608 60.0596 146.261 59.564 145.921 59.0639C145.955 59.1148 145.99 59.1658 146.024 59.2167C145.843 58.9574 145.657 58.7081 145.449 58.4694C145.219 58.2046 145.031 57.903 144.842 57.6041C144.813 57.5644 144.782 57.5251 144.752 57.4862C144.668 57.3935 144.585 57.3003 144.502 57.2067C144.339 57.0274 144.165 56.8606 143.988 56.6967C143.871 56.5975 143.754 56.4993 143.635 56.405C143.322 56.2074 143.013 56.0044 142.721 55.7742C142.623 55.6967 142.524 55.6208 142.423 55.5462C142.112 55.357 141.794 55.1815 141.483 54.9908C141.071 54.7384 140.68 54.462 140.255 54.2317C140.005 54.1051 139.756 53.9774 139.506 53.8494C139.149 53.6951 138.785 53.563 138.425 53.4159C138.133 53.2968 137.847 53.1618 137.558 53.0349C136.679 52.7681 135.831 52.4207 134.973 52.0931C134.063 51.7869 133.154 51.4768 132.25 51.1536C131.609 50.9409 130.963 50.7443 130.341 50.4782C129.806 50.2491 129.274 50.0158 128.729 49.8085C128.938 49.8807 129.146 49.9533 129.355 50.0259C125.001 48.3953 120.628 46.5546 116.84 43.82C116.372 43.5243 115.897 43.2428 115.443 42.9213C115.133 42.7016 114.835 42.4645 114.527 42.2417C112.94 41.1818 111.565 39.8554 110.174 38.5557C108.85 37.4623 107.64 36.2055 106.745 34.7393C104.569 32.0635 105.166 27.992 108.543 26.5269C110.922 25.4664 113.854 26.5909 115.022 28.8597C115.092 28.9594 115.161 29.0667 115.234 29.1877C115.264 29.2377 115.292 29.2885 115.32 29.3399C115.39 29.4329 115.46 29.5263 115.527 29.6224C115.607 29.7382 115.689 29.8505 115.774 29.9606C115.936 30.1241 116.1 30.2838 116.268 30.4407C116.754 30.8602 117.236 31.2824 117.698 31.7293C118.068 32.0873 118.452 32.4319 118.832 32.78C119.235 33.1239 119.643 33.4688 120.076 33.7726C120.365 33.967 120.652 34.1637 120.93 34.3742C121.076 34.4848 121.223 34.5947 121.37 34.703C121.59 34.8369 121.813 34.9659 122.027 35.1076C122.47 35.401 122.904 35.705 123.337 36.0118C123.895 36.3813 124.461 36.7422 125.049 37.0614C125.647 37.3866 126.258 37.6921 126.866 38.0022C128.635 38.824 130.432 39.5825 132.239 40.3172C132.031 40.2446 131.823 40.172 131.614 40.0998C132.289 40.3336 132.958 40.5681 133.616 40.8451C133.966 40.9922 134.31 41.1475 134.661 41.2873C135.226 41.4698 135.786 41.667 136.345 41.8669C137.604 42.295 138.869 42.7058 140.1 43.2078C141.637 43.6852 143.117 44.3405 144.556 45.0657C145.367 45.4308 146.106 45.9208 146.859 46.392C147.64 46.8218 148.374 47.327 149.08 47.8702C150.175 48.5677 151.161 49.4584 152.021 50.4317C152.291 50.727 152.565 51.0182 152.812 51.3338C153.011 51.5883 153.19 51.8574 153.367 52.1281C153.528 52.3401 153.705 52.5389 153.861 52.755C154.072 53.0464 154.271 53.3459 154.47 53.6456C156.352 56.2073 157.234 57.2187 158.057 60.4202C158.254 61.0247 158.379 61.6494 158.422 62.2832C159.145 65.5831 157.003 68.8804 153.472 68.9032C150.02 68.7804 148.344 66.16 148.446 63.6138ZM148.446 63.61C148.448 63.5692 148.45 63.5284 148.453 63.4877C148.448 63.5215 148.444 63.5553 148.439 63.5892C148.442 63.5961 148.444 63.603 148.446 63.61ZM148.408 63.4986C148.406 63.4924 148.404 63.4862 148.402 63.48C148.402 63.4808 148.402 63.4815 148.402 63.4822C148.404 63.4877 148.406 63.4931 148.408 63.4986ZM148.554 62.7324C148.577 62.6236 148.603 62.5153 148.632 62.4081C148.617 62.4335 148.602 62.4589 148.588 62.4842C148.577 62.5669 148.565 62.6496 148.554 62.7324ZM152.125 58.9469C152.125 58.9469 152.126 58.9469 152.126 58.9469C152.114 58.9536 152.103 58.9603 152.092 58.967C152.134 58.9555 152.177 58.9447 152.22 58.9342C152.188 58.9384 152.157 58.9427 152.125 58.9469ZM106.553 34.4112C106.484 34.289 106.417 34.1654 106.352 34.0404C106.4 34.1363 106.449 34.2323 106.497 34.3283C106.515 34.3559 106.534 34.3835 106.553 34.4112ZM106.529 34.3926C106.523 34.3797 106.517 34.3671 106.51 34.3546C106.516 34.3673 106.523 34.38 106.529 34.3926Z" fill="white"/>
<path d="M207.627 94.3334C206.649 94.2104 205.704 93.8986 204.811 93.4925C204.277 93.2495 203.737 93.0279 203.196 92.8026C202.6 92.5538 202.032 92.2512 201.46 91.9533C201.032 91.7552 200.593 91.5828 200.169 91.3751C199.479 91.0364 198.804 90.6835 198.152 90.2782C197.675 89.9824 197.214 89.6618 196.744 89.3571C196.224 89.021 195.703 88.6899 195.356 88.4596C195.295 88.4185 195.233 88.3773 195.172 88.3358C195.073 88.2699 194.974 88.2032 194.876 88.1361C194.852 88.1197 194.828 88.1037 194.804 88.0874C194.306 87.7664 193.782 87.4898 193.289 87.1609C192.87 86.8806 192.427 86.6032 192.038 86.2771C191.698 85.9914 191.37 85.6943 191.045 85.3934C190.997 85.354 190.949 85.315 190.901 85.2764C189.987 84.5429 189.12 83.754 188.199 83.0289C187.23 82.2652 186.33 81.4184 185.412 80.5939C184.923 80.1826 184.439 79.7626 183.939 79.3631C183.366 78.9041 182.818 78.4177 182.272 77.9268C181.967 77.6784 181.654 77.4434 181.332 77.218C180.983 76.9839 180.637 76.746 180.291 76.5076C179.705 76.127 179.108 75.7628 178.508 75.4066C177.922 75.0583 177.338 74.7062 176.737 74.3848C175.84 73.969 174.925 73.5967 174.013 73.2149C173.048 72.8108 172.08 72.4118 171.098 72.0517C170.544 71.8612 169.989 71.6707 169.438 71.4735C168.977 71.309 168.524 71.1202 168.067 70.9456C167.184 70.6494 166.296 70.3682 165.398 70.1227C164.546 69.8899 163.682 69.7031 162.818 69.5185C161.866 69.3544 160.912 69.2449 159.951 69.1526C158.933 69.0548 157.916 68.9277 156.897 68.845C156.701 68.832 156.505 68.8186 156.308 68.8052C155.516 68.7548 154.724 68.7086 153.932 68.649C153.914 68.6486 153.896 68.6482 153.879 68.6482C152.533 68.6234 151.253 68.1216 150.295 67.1636C149.35 66.2178 148.81 64.9165 148.81 63.5792C148.81 62.2423 149.35 60.9407 150.295 59.9953C151.228 59.0625 152.552 58.4868 153.879 58.5107C154.343 58.5191 154.804 58.5698 155.266 58.6105C155.906 58.6475 156.545 58.6844 157.184 58.7268C157.694 58.757 158.207 58.7775 158.715 58.8359C159.934 58.9756 161.157 59.0839 162.378 59.211C163.741 59.3533 165.074 59.6516 166.411 59.9437C167.585 60.1996 168.738 60.5143 169.882 60.8849C170.687 61.1454 171.49 61.409 172.283 61.706C172.779 61.8919 173.27 62.0887 173.768 62.2696C174.836 62.6393 175.893 63.0274 176.94 63.4542C177.906 63.8486 178.872 64.2443 179.829 64.6614C180.587 64.9921 181.331 65.3475 182.06 65.7386C182.578 66.0168 183.08 66.3298 183.586 66.6303C184.067 66.916 184.546 67.2072 185.02 67.5056C185.585 67.8627 186.134 68.2441 186.685 68.6226C187.197 68.9595 187.713 69.2982 188.193 69.6792C188.649 70.0422 189.078 70.4349 189.508 70.8268C190.162 71.3816 190.83 71.9199 191.489 72.4696C192.298 73.1461 193.074 73.8649 193.857 74.5715C194.185 74.8434 194.523 75.1019 194.853 75.3717C195.217 75.6692 195.57 75.9755 195.927 76.281C196.298 76.5987 196.673 76.9117 197.054 77.2176C197.462 77.5449 197.848 77.897 198.233 78.249C198.365 78.3548 198.5 78.4563 198.636 78.5553C198.868 78.6993 199.105 78.8335 199.34 78.9737C199.834 79.2687 200.308 79.591 200.601 79.794C200.732 79.883 200.864 79.9724 200.996 80.0613C201.583 80.4398 202.171 80.8137 202.755 81.1981C203.234 81.5141 203.727 81.8111 204.232 82.0856C204.572 82.24 204.917 82.3806 205.256 82.5392C205.721 82.757 206.173 82.9987 206.627 83.2353C207.081 83.4409 207.543 83.6239 208.004 83.8148C208.318 83.9449 208.625 84.0913 208.936 84.2286C209.176 84.1933 209.418 84.1753 209.662 84.1753C210.999 84.1753 212.301 84.7145 213.246 85.6599C213.268 85.6821 213.291 85.7044 213.312 85.727C214.908 87.314 215.208 89.9442 214.077 91.8752C213.427 92.986 212.305 93.9133 211.039 94.2142C210.494 94.3438 210.084 94.3892 209.522 94.411C209.39 94.416 209.257 94.4152 209.124 94.416C209.101 94.416 209.077 94.4164 209.054 94.4164C208.578 94.4165 208.1 94.3925 207.627 94.3334Z" fill="white"/>
<path d="M10.8769 94.4161C7.13855 94.5848 5.30483 91.9475 5.30274 89.3098C5.30063 86.589 7.24765 83.8678 11.0645 84.2282C12.6628 83.5761 14.1944 82.7915 15.7684 82.0857C17.4607 81.1487 19.0196 79.9926 20.6607 78.9738C22.6493 77.7389 24.2619 75.9677 26.143 74.5716C31.1091 69.9353 36.6091 65.7722 43.0607 63.4543C46.52 62.1455 49.9684 60.7414 53.5897 59.9438C56.1137 59.3047 58.7036 59.1012 61.2855 58.836C62.8951 58.7042 64.5102 58.6236 66.1215 58.5108C68.8386 58.442 71.2438 60.8682 71.1901 63.5793C71.2379 66.314 68.847 68.6798 66.1215 68.6483C64.0931 68.7654 62.0685 68.9198 60.0497 69.1527C55.136 69.5232 50.5168 71.4001 45.9875 73.215C41.6797 74.8032 37.9934 77.5748 34.5882 80.5939C32.4595 82.5829 30.1327 84.3361 27.9625 86.2772C25.9945 87.7094 23.8586 88.9007 21.8486 90.2783C20.2407 91.2598 18.493 91.9748 16.8044 92.8023C15.0273 93.5803 13.2209 94.4263 11.2509 94.4264C11.1268 94.4264 11.0024 94.423 10.8769 94.4161Z" fill="white"/>
<path d="M169.81 113.925C169.81 113.925 169.811 113.925 169.812 113.925C169.81 113.925 169.809 113.925 169.807 113.925C169.808 113.925 169.809 113.925 169.81 113.925Z" fill="white"/>
<path d="M169.808 113.926C169.802 113.928 169.796 113.93 169.79 113.933C169.796 113.93 169.802 113.928 169.808 113.926Z" fill="white"/>
<path d="M169.787 113.934C169.787 113.934 169.786 113.934 169.785 113.934C169.786 113.934 169.786 113.934 169.787 113.934Z" fill="white"/>
<path d="M169.787 113.932C169.789 113.932 169.79 113.932 169.792 113.932C169.79 113.932 169.788 113.932 169.786 113.933C169.786 113.933 169.787 113.933 169.787 113.932Z" fill="white"/>
<path d="M169.785 113.934C169.784 113.934 169.782 113.934 169.781 113.934C169.782 113.934 169.784 113.934 169.785 113.934Z" fill="white"/>
<path d="M169.777 113.937C169.779 113.937 169.78 113.936 169.782 113.936C169.777 113.938 169.772 113.939 169.767 113.941C169.77 113.94 169.774 113.938 169.777 113.937Z" fill="white"/>
<path d="M31.1984 104.786C30.1951 103.912 29.1599 103.09 28.0773 102.317C27.3111 101.802 26.5453 101.286 25.8067 100.731C25.1895 100.266 24.5798 99.7969 23.9503 99.3512C23.5035 99.0848 23.049 98.8309 22.5979 98.5716C21.9916 98.2237 21.4163 97.8251 20.841 97.4273C20.4642 97.1814 20.0827 96.9485 19.6891 96.7282C18.5348 96.1802 17.3569 95.6834 16.1564 95.2449C15.647 95.0791 15.135 94.9259 14.6176 94.7845C14.1481 94.6561 13.6781 94.5177 13.2052 94.3964C12.9744 94.3666 12.7428 94.3423 12.5133 94.302C12.2959 94.2642 12.0785 94.2252 11.8595 94.1954C11.7013 94.1941 11.5435 94.1958 11.3853 94.1958C11.1885 94.1958 10.9888 94.187 10.7912 94.1929C10.6854 94.1988 10.5793 94.2046 10.4731 94.208C9.15508 94.2541 7.8102 93.6444 6.88914 92.7234C5.94333 91.7784 5.40454 90.4768 5.40454 89.1394C5.40454 87.8025 5.94333 86.5009 6.88914 85.5555C7.34989 85.0943 7.89959 84.7234 8.50005 84.4691C9.13703 84.1997 9.78618 84.0948 10.064 84.1024C10.5981 84.0684 11.1206 84.0579 11.6564 84.0583C12.126 84.0592 12.5943 84.0755 13.0621 84.1288C13.4683 84.1754 13.8678 84.2647 14.2731 84.3164C15.4191 84.462 16.5328 84.7872 17.6427 85.1002C18.8067 85.4283 19.9342 85.8484 21.063 86.2781C21.9823 86.628 22.8833 87.0183 23.7674 87.4492C24.4186 87.7669 25.0493 88.0979 25.6649 88.4769C26.129 88.7626 26.5763 89.0786 27.0232 89.3912C27.5376 89.7147 28.0605 90.0169 28.5917 90.3135C28.6131 90.3257 28.6349 90.3379 28.6568 90.3505C28.5191 90.4528 28.3832 90.5569 28.2476 90.6622C28.0718 90.7919 27.9157 90.9316 27.7953 91.1192C27.7861 91.1343 27.7768 91.1494 27.7676 91.1645C27.523 91.3336 27.2762 91.4989 27.027 91.6626C26.3992 92.0755 25.7723 92.4855 25.1614 92.9227C24.8643 93.135 24.6528 93.4351 24.5856 93.798C24.5751 93.8547 24.5684 93.9117 24.5655 93.9692C24.328 94.1425 24.0897 94.315 23.8517 94.4875C23.5228 94.7249 23.3259 95.085 23.2773 95.4647C23.2454 95.495 23.2135 95.5256 23.182 95.5562C22.8606 95.8697 22.6739 96.2796 22.7133 96.7349C22.7448 97.1 22.921 97.4462 23.1984 97.6853C23.4615 97.9124 23.7934 98.0227 24.1236 98.0227C24.3452 98.0227 24.5663 97.9728 24.7657 97.875C24.7657 97.8754 24.7657 97.8759 24.7657 97.8759C24.7736 97.8717 24.7816 97.867 24.7896 97.8628C24.8101 97.8524 24.8303 97.8415 24.8504 97.8297C24.9943 97.7508 25.1383 97.6723 25.2751 97.5809C25.385 97.5079 25.4945 97.4348 25.6045 97.3614C25.7778 97.246 25.9473 97.1235 26.1181 97.0043C26.458 96.7672 26.7958 96.526 27.1268 96.2763C27.6157 95.9074 28.0957 95.5302 28.5653 95.1362C28.8204 94.9222 29.0747 94.7057 29.3235 94.4833C29.5648 94.6595 29.8695 94.7354 30.1707 94.6947C30.219 95.0653 30.3755 95.4148 30.6332 95.7132C30.6873 95.7757 30.7448 95.8327 30.8048 95.8852C30.8812 96.2167 31.0519 96.5251 31.2974 96.7635C31.4508 96.9126 31.621 97.0208 31.8051 97.1004V105.292C31.5994 105.128 31.3971 104.959 31.1984 104.786Z" fill="white"/>
<path d="M163.85 116.211C163.871 116.008 163.849 115.808 163.791 115.62C163.795 115.59 163.798 115.56 163.801 115.53C163.825 115.294 163.854 115.058 163.87 114.822C163.904 114.334 163.962 113.802 163.759 113.348C163.763 113.329 163.768 113.31 163.773 113.291C164.031 112.475 164.353 111.681 164.682 110.892C164.914 110.334 165.146 109.777 165.389 109.224C165.396 109.215 165.403 109.207 165.41 109.198C165.452 109.141 165.493 109.083 165.534 109.024C165.632 109.063 165.736 109.093 165.842 109.115C166.231 109.193 166.642 109.141 166.999 108.97C167.381 108.787 167.637 108.496 167.848 108.138C168.158 107.613 168.263 106.988 168.413 106.401C168.482 106.132 168.543 105.864 168.601 105.592C168.692 105.162 168.782 104.734 168.851 104.3C170.419 103.707 171.964 103.042 173.48 102.33C174.121 101.984 174.749 101.616 175.388 101.268C176.097 100.883 176.799 100.49 177.498 100.086C178.046 99.77 178.589 99.4452 179.129 99.1142C180.212 98.8792 181.296 98.6434 182.372 98.3782C183.327 98.1432 184.281 97.9094 185.232 97.6585C185.742 97.5402 186.255 97.437 186.775 97.3711C186.933 97.3509 187.091 97.3367 187.249 97.3182C187.435 97.2968 187.607 97.2649 187.79 97.2288C188.135 97.152 188.442 97.0161 188.702 96.7635C188.948 96.5251 189.119 96.2167 189.195 95.8852C189.255 95.8328 189.312 95.7757 189.366 95.7132C189.624 95.4148 189.78 95.0653 189.829 94.6948C190.13 94.7359 190.435 94.6595 190.676 94.4833C190.925 94.7057 191.179 94.9222 191.434 95.1362C191.904 95.5302 192.384 95.9074 192.873 96.2763C193.204 96.526 193.541 96.7673 193.881 97.0043C194.052 97.1235 194.222 97.246 194.395 97.3614C194.505 97.4349 194.614 97.5079 194.724 97.5809C194.861 97.6724 195.005 97.7508 195.149 97.8297C195.169 97.8415 195.189 97.8524 195.21 97.8629C195.218 97.8675 195.226 97.8717 195.234 97.8759C195.234 97.8759 195.234 97.8755 195.234 97.875C195.433 97.9728 195.654 98.0227 195.876 98.0227C196.206 98.0227 196.538 97.9124 196.801 97.6853C197.078 97.4462 197.255 97.1 197.286 96.7349C197.326 96.2796 197.139 95.8697 196.817 95.5562C196.786 95.5256 196.755 95.4954 196.723 95.4652C196.674 95.0854 196.477 94.7254 196.148 94.4875C195.91 94.315 195.671 94.1421 195.434 93.9688C195.431 93.9117 195.424 93.8547 195.414 93.798C195.347 93.435 195.135 93.135 194.838 92.9227C194.227 92.4855 193.6 92.0755 192.973 91.6626C192.724 91.4989 192.477 91.3336 192.232 91.1645C192.223 91.1494 192.214 91.1343 192.204 91.1192C192.084 90.9316 191.928 90.7919 191.752 90.6622C191.617 90.5569 191.48 90.4528 191.343 90.3505C191.365 90.3379 191.387 90.3257 191.409 90.3135C191.94 90.0169 192.463 89.7147 192.977 89.3912C193.424 89.0786 193.872 88.7626 194.336 88.4769C194.951 88.0979 195.582 87.7669 196.233 87.4492C197.117 87.0183 198.018 86.628 198.937 86.2781C200.066 85.8484 201.194 85.4283 202.358 85.1002C203.468 84.7872 204.581 84.462 205.727 84.3164C206.133 84.2647 206.532 84.1754 206.938 84.1288C207.406 84.0755 207.874 84.0591 208.344 84.0583C208.88 84.0579 209.402 84.0684 209.527 84.0709C210.214 84.0948 210.863 84.1997 211.5 84.4691C212.101 84.7234 212.65 85.0943 213.111 85.5555C214.057 86.5009 214.596 87.8025 214.596 89.1394C214.596 90.4768 214.057 91.7784 213.111 92.7234C212.19 93.6444 210.845 94.2541 209.527 94.208C209.421 94.2046 209.315 94.1988 209.209 94.1929C209.012 94.187 208.812 94.1958 208.615 94.1958C208.457 94.1958 208.299 94.1941 208.141 94.1954C207.922 94.2252 207.704 94.2642 207.487 94.302C207.258 94.3423 207.026 94.3666 206.795 94.3964C206.322 94.5177 205.852 94.6561 205.383 94.7845C204.865 94.9259 204.354 95.0791 203.844 95.2449C202.643 95.6834 201.466 96.1802 200.311 96.7286C199.917 96.9489 199.536 97.1814 199.159 97.4273C198.584 97.8251 198.009 98.2237 197.402 98.5716C196.951 98.8309 196.497 99.0848 196.05 99.3512C195.421 99.7969 194.811 100.266 194.194 100.731C193.455 101.286 192.689 101.802 191.923 102.317C190.84 103.09 189.805 103.912 188.802 104.786C188.155 105.35 187.47 105.869 186.744 106.331C186.163 106.7 185.567 107.045 184.983 107.41C184.053 107.989 183.115 108.55 182.167 109.098C182.09 109.142 182.013 109.186 181.936 109.23C181.362 109.435 180.787 109.635 180.213 109.84C178.153 110.575 176.152 111.462 174.138 112.312C172.936 112.791 171.722 113.251 170.502 113.682C170.274 113.76 170.047 113.839 169.821 113.921C169.818 113.922 169.815 113.923 169.812 113.925C169.812 113.925 169.812 113.925 169.811 113.925C169.812 113.925 169.812 113.925 169.812 113.925C169.811 113.925 169.811 113.925 169.81 113.925C169.802 113.928 169.795 113.93 169.787 113.933C169.784 113.935 169.781 113.936 169.777 113.937C169.759 113.943 169.741 113.95 169.724 113.956C169.738 113.951 169.753 113.946 169.767 113.941C169.127 114.178 168.498 114.44 167.868 114.701C167.538 114.832 167.197 114.936 166.863 115.057C166.546 115.173 166.23 115.29 165.917 115.416C165.611 115.54 165.295 115.642 164.989 115.766C164.64 115.908 164.293 116.057 163.95 116.214C163.916 116.227 163.881 116.241 163.846 116.254C163.847 116.24 163.849 116.225 163.85 116.211Z" fill="white"/>
<path d="M210.02 84.1085C210.039 84.1094 210.058 84.1106 210.077 84.1119C210.058 84.1111 210.039 84.1098 210.02 84.1085Z" fill="white"/>
<path d="M183.802 97.3026C183.767 97.311 183.732 97.3199 183.697 97.3284C183.732 97.3195 183.767 97.311 183.802 97.3026Z" fill="white"/>
<path d="M163.85 116.211C163.87 116.008 163.848 115.808 163.79 115.62C163.794 115.59 163.798 115.56 163.8 115.53C163.824 115.294 163.853 115.058 163.87 114.822C163.903 114.334 163.962 113.802 163.758 113.348C163.763 113.329 163.768 113.31 163.773 113.291C164.03 112.475 164.353 111.682 164.682 110.892C164.914 110.335 165.145 109.777 165.389 109.224C165.395 109.216 165.402 109.207 165.409 109.198C165.452 109.141 165.493 109.083 165.533 109.024C165.632 109.063 165.735 109.094 165.841 109.115C166.23 109.193 166.641 109.141 166.998 108.97C167.381 108.787 167.636 108.496 167.848 108.138C168.157 107.613 168.262 106.988 168.412 106.401C168.481 106.132 168.543 105.864 168.6 105.592C168.691 105.162 168.782 104.734 168.851 104.3C170.407 103.711 171.941 103.052 173.446 102.346C175.361 101.308 177.256 100.235 179.124 99.1151C180.209 98.8797 181.295 98.6434 182.372 98.3782C183.326 98.1432 184.282 97.9095 185.232 97.6586C185.742 97.5403 186.255 97.437 186.775 97.3711C186.933 97.351 187.091 97.3367 187.249 97.3183C187.435 97.2969 187.607 97.265 187.79 97.2289C188.134 97.1521 188.442 97.0162 188.703 96.7635C188.948 96.5252 189.119 96.2168 189.195 95.8853C189.255 95.8328 189.312 95.7758 189.366 95.7132C189.624 95.4149 189.781 95.0653 189.829 94.6948C190.13 94.7359 190.435 94.6596 190.676 94.4833C190.925 94.7057 191.179 94.9223 191.434 95.1363C191.903 95.5303 192.383 95.9075 192.872 96.2764C193.203 96.526 193.541 96.7673 193.881 97.0044C194.052 97.1236 194.221 97.2461 194.395 97.3615C194.505 97.4349 194.614 97.5079 194.724 97.581C194.861 97.6724 195.005 97.7509 195.149 97.8298C195.169 97.8411 195.189 97.8525 195.21 97.8629C195.218 97.8671 195.226 97.8717 195.233 97.8759C195.234 97.8755 195.234 97.8755 195.234 97.8751C195.433 97.9729 195.654 98.0228 195.876 98.0228C196.206 98.0228 196.538 97.9124 196.801 97.6854C197.078 97.4462 197.254 97.1001 197.286 96.735C197.325 96.2797 197.139 95.8697 196.817 95.5563C196.786 95.5257 196.754 95.495 196.722 95.4648C196.674 95.0855 196.477 94.7254 196.148 94.4875C195.91 94.3151 195.672 94.1426 195.434 93.9689C195.431 93.9118 195.424 93.8547 195.414 93.7981C195.346 93.4351 195.135 93.1351 194.838 92.9228C194.227 92.4855 193.6 92.0756 192.972 91.6627C192.723 91.499 192.477 91.3337 192.232 91.1646C192.223 91.1495 192.214 91.1344 192.204 91.1193C192.084 90.9317 191.928 90.792 191.752 90.6623C191.617 90.5578 191.482 90.4542 191.345 90.3522C191.913 89.9884 192.491 89.6401 193.086 89.3157C197.651 86.2316 204.48 83.7613 209.93 84.1024C209.75 84.0903 209.569 84.0781 209.388 84.0659C209.597 84.0714 209.8 84.0848 209.996 84.1066C210.004 84.1071 210.012 84.1079 210.02 84.1083C210.013 84.1079 210.007 84.1074 210 84.107C216.584 84.8414 215.792 94.6067 209.062 94.1913C208.913 94.1908 208.763 94.1959 208.615 94.1959C208.456 94.1959 208.297 94.1942 208.138 94.1959C207.92 94.2257 207.703 94.2647 207.487 94.3021C207.257 94.3423 207.025 94.3671 206.794 94.3969C206.321 94.5177 205.851 94.6562 205.382 94.785C204.863 94.9269 204.35 95.0804 203.839 95.2462C202.64 95.6843 201.464 96.1807 200.311 96.7283C199.916 96.9498 199.532 97.184 199.154 97.4311C198.58 97.8277 198.006 98.2246 197.402 98.5717C196.949 98.8314 196.495 99.0857 196.047 99.3526C195.419 99.7982 194.81 100.267 194.193 100.731C193.414 101.316 192.604 101.859 191.795 102.402C190.037 103.62 188.544 105.174 186.743 106.331C185.149 107.308 183.554 108.292 181.934 109.231C181.361 109.436 180.786 109.635 180.212 109.84C178.153 110.575 176.151 111.463 174.137 112.312C172.935 112.792 171.722 113.251 170.501 113.682C170.264 113.764 170.026 113.847 169.79 113.933C169.8 113.928 169.81 113.925 169.82 113.921C169.788 113.933 169.755 113.945 169.723 113.956C169.745 113.949 169.767 113.94 169.79 113.933C169.141 114.172 168.506 114.437 167.867 114.7C167.537 114.833 167.196 114.937 166.862 115.058C166.546 115.173 166.229 115.29 165.916 115.416C165.61 115.54 165.294 115.642 164.988 115.766C164.639 115.909 164.293 116.057 163.95 116.214C163.915 116.227 163.88 116.241 163.845 116.254C163.847 116.24 163.848 116.225 163.85 116.211Z" fill="white"/>
<path d="M169.774 113.938C169.769 113.94 169.765 113.942 169.76 113.943C169.765 113.942 169.769 113.94 169.774 113.938Z" fill="white"/>
<path d="M169.788 113.933C169.789 113.933 169.79 113.932 169.79 113.932C169.784 113.935 169.779 113.937 169.773 113.939C169.778 113.937 169.783 113.935 169.788 113.933Z" fill="white"/>
<path d="M167.109 113.425C167.082 111.935 167.063 110.445 167.028 108.955C167.394 108.772 167.642 108.487 167.848 108.138C168.157 107.613 168.262 106.988 168.412 106.401C168.481 106.132 168.543 105.864 168.6 105.592C168.671 105.256 168.742 104.923 168.802 104.586C169.714 103.813 170.888 103.379 172.088 103.38C173.426 103.381 174.727 103.921 175.671 104.867C176.626 105.822 177.136 107.108 177.153 108.452C177.164 109.307 177.183 110.161 177.201 111.015C176.177 111.441 175.159 111.881 174.138 112.312C172.936 112.791 171.722 113.251 170.501 113.682C170.269 113.762 170.038 113.843 169.808 113.926C169.812 113.924 169.816 113.923 169.82 113.921C169.81 113.925 169.8 113.929 169.79 113.932C169.79 113.932 169.79 113.932 169.79 113.932C169.789 113.933 169.788 113.933 169.788 113.933C169.777 113.937 169.766 113.941 169.755 113.945C169.744 113.949 169.734 113.953 169.723 113.957C169.734 113.953 169.745 113.949 169.755 113.945C169.757 113.945 169.758 113.944 169.76 113.943C169.122 114.18 168.496 114.441 167.867 114.701C167.628 114.796 167.382 114.878 167.138 114.961C167.128 114.449 167.119 113.937 167.109 113.425Z" fill="white"/>
<path d="M176.058 116.727C176.053 116.73 176.048 116.732 176.043 116.734C176.034 116.737 176.026 116.74 176.018 116.744C176.015 116.745 176.011 116.747 176.008 116.748C176.024 116.741 176.041 116.734 176.058 116.727Z" fill="white"/>
<path d="M172.07 118.234C172.05 118.241 172.03 118.248 172.01 118.255C172.03 118.247 172.05 118.241 172.07 118.234Z" fill="white"/>
<path d="M171.952 118.275C171.919 118.287 171.886 118.299 171.853 118.311C171.886 118.299 171.919 118.287 171.952 118.275Z" fill="white"/>
<path d="M176.078 116.72C176.076 116.72 176.075 116.72 176.073 116.72C176.075 116.72 176.077 116.72 176.078 116.72Z" fill="white"/>
<path d="M172.009 118.255C172.027 118.249 172.044 118.243 172.061 118.237C172.044 118.243 172.027 118.249 172.01 118.255H172.009Z" fill="white"/>
<path d="M167.306 122.049C167.307 122.049 167.308 122.049 167.308 122.049C167.308 122.049 167.307 122.049 167.307 122.049C167.307 122.049 167.307 122.049 167.306 122.049Z" fill="white"/>
<path d="M167.307 122.049C167.307 122.049 167.308 122.049 167.309 122.049C167.309 122.049 167.308 122.049 167.307 122.049C167.307 122.049 167.307 122.049 167.307 122.049Z" fill="white"/>
<path d="M167.311 122.05C167.307 122.057 167.307 122.057 167.303 122.057C167.307 122.057 167.307 122.05 167.311 122.05Z" fill="white"/>
<path d="M176.867 117.547C176.869 117.546 176.87 117.545 176.871 117.545C176.869 117.546 176.867 117.547 176.864 117.549C176.865 117.548 176.866 117.547 176.867 117.547Z" fill="white"/>
<path d="M176.83 117.569C176.83 117.577 176.826 117.577 176.821 117.577C176.826 117.577 176.826 117.577 176.83 117.569Z" fill="white"/>
<path d="M176.821 117.577C176.825 117.577 176.825 117.577 176.829 117.57C176.829 117.577 176.825 117.577 176.825 117.577H176.821Z" fill="white"/>
<path d="M167.234 120.097C167.562 119.976 167.886 119.845 168.215 119.726C168.808 119.51 169.399 119.298 169.981 119.054C170.448 118.859 170.912 118.661 171.383 118.476C171.415 118.465 171.448 118.453 171.479 118.442C171.596 118.401 171.711 118.36 171.828 118.319C171.82 118.322 171.812 118.325 171.804 118.328C171.96 118.273 172.116 118.218 172.272 118.163C172.202 118.188 172.131 118.213 172.061 118.237C173.388 117.774 174.707 117.279 176.008 116.748C176.006 116.748 176.004 116.749 176.002 116.75C176.007 116.748 176.013 116.746 176.018 116.743C176.026 116.74 176.034 116.737 176.042 116.733C176.05 116.73 176.058 116.727 176.066 116.724C176.068 116.723 176.07 116.722 176.072 116.722C176.481 116.552 176.89 116.38 177.298 116.208C177.305 116.579 177.312 116.949 177.319 117.32C177.277 117.341 177.234 117.361 177.192 117.382C177.11 117.422 177.028 117.461 176.947 117.504C176.947 117.503 176.948 117.503 176.948 117.503C176.942 117.506 176.935 117.51 176.929 117.513C176.928 117.513 176.928 117.513 176.927 117.514C176.928 117.513 176.928 117.513 176.929 117.513H176.929C176.909 117.523 176.889 117.534 176.869 117.545C176.868 117.545 176.867 117.545 176.866 117.546C176.865 117.547 176.863 117.547 176.862 117.548C176.861 117.549 176.859 117.55 176.858 117.55C176.859 117.55 176.86 117.55 176.861 117.549C176.852 117.553 176.844 117.558 176.835 117.563C176.837 117.561 176.839 117.56 176.841 117.559C176.835 117.563 176.83 117.565 176.825 117.568C176.824 117.568 176.824 117.568 176.824 117.568C176.824 117.568 176.824 117.568 176.825 117.568C176.824 117.568 176.824 117.568 176.824 117.568C176.823 117.569 176.823 117.569 176.822 117.569C176.822 117.569 176.821 117.57 176.821 117.57C176.82 117.57 176.82 117.57 176.82 117.57C176.82 117.57 176.82 117.57 176.82 117.57C176.816 117.572 176.813 117.574 176.809 117.576C176.809 117.576 176.809 117.576 176.809 117.576C176.808 117.576 176.808 117.576 176.808 117.576C176.741 117.611 176.671 117.639 176.604 117.672C176.537 117.705 176.468 117.738 176.403 117.775C176.366 117.796 176.33 117.816 176.294 117.838C176.26 117.858 176.228 117.879 176.194 117.899C176.171 117.912 176.148 117.926 176.124 117.941C176.114 117.946 176.104 117.953 176.094 117.959C176.055 117.979 176.017 117.999 175.979 118.019C175.979 118.019 175.979 118.019 175.979 118.019C175.888 118.066 175.796 118.11 175.704 118.155C174.916 118.444 174.17 118.843 173.494 119.337C173.468 119.35 173.441 119.364 173.415 119.377C173.39 119.389 173.366 119.401 173.342 119.413C173.333 119.417 173.324 119.421 173.316 119.426C173.319 119.425 173.32 119.424 173.322 119.423C173.319 119.424 173.316 119.426 173.313 119.428C173.315 119.426 173.317 119.426 173.319 119.424C173.222 119.476 173.126 119.528 173.029 119.58C173.031 119.58 173.033 119.578 173.035 119.578C173.02 119.585 173.006 119.594 172.992 119.603C172.958 119.622 172.925 119.642 172.892 119.662C172.857 119.682 172.823 119.703 172.789 119.723C172.779 119.729 172.768 119.735 172.758 119.742C172.661 119.807 172.563 119.873 172.466 119.94C172.389 119.994 172.312 120.047 172.235 120.101C172.17 120.128 172.105 120.156 172.04 120.183C171.526 120.402 171.046 120.659 170.545 120.892C170.443 120.939 170.343 120.988 170.246 121.039C170.203 121.049 170.161 121.058 170.119 121.069C169.539 121.211 168.804 121.453 168.232 121.748C168.208 121.757 168.183 121.764 168.159 121.772C168.055 121.806 167.95 121.834 167.846 121.87C167.763 121.899 167.678 121.926 167.595 121.958C167.595 121.958 167.594 121.958 167.593 121.959C167.573 121.966 167.551 121.97 167.531 121.978C167.507 121.987 167.485 121.997 167.462 122.01C167.447 122.005 167.429 122.009 167.417 122.02C167.416 122.02 167.415 122.021 167.415 122.021C167.406 122.023 167.397 122.026 167.388 122.028C167.378 122.031 167.368 122.034 167.359 122.037C167.347 122.04 167.334 122.043 167.321 122.046C167.32 122.046 167.319 122.046 167.318 122.047C167.319 122.046 167.32 122.046 167.321 122.046H167.321C167.316 122.047 167.312 122.048 167.307 122.049C167.307 122.049 167.307 122.049 167.306 122.049C167.306 122.049 167.306 122.049 167.305 122.049C167.305 122.049 167.304 122.05 167.304 122.05C167.303 122.05 167.303 122.05 167.303 122.05C167.297 122.052 167.291 122.053 167.285 122.055C167.287 122.054 167.288 122.054 167.289 122.053C167.283 122.055 167.277 122.056 167.271 122.058C167.259 121.405 167.246 120.751 167.234 120.097Z" fill="white"/>
<path d="M170.679 100.719C170.676 100.721 170.672 100.723 170.669 100.724C170.672 100.722 170.676 100.72 170.679 100.719Z" fill="white"/>
<path d="M187.79 97.2292C187.789 97.2293 187.788 97.2294 187.787 97.2294C187.788 97.2294 187.789 97.2292 187.79 97.2292Z" fill="white"/>
<path d="M187.793 97.2287C187.793 97.2289 187.792 97.2289 187.791 97.2289C187.79 97.2289 187.79 97.2289 187.79 97.2289C187.791 97.2288 187.792 97.2288 187.793 97.2287Z" fill="white"/>
<path d="M163.034 120.473C163.043 120.328 163.033 120.185 163.007 120.046C163.229 119.85 163.39 119.612 163.506 119.334C163.611 119.08 163.634 118.818 163.657 118.548C163.696 118.293 163.732 118.037 163.757 117.78C163.782 117.515 163.789 117.249 163.802 116.984C163.814 116.727 163.824 116.468 163.85 116.212C163.871 116.008 163.849 115.808 163.791 115.621C163.795 115.59 163.798 115.56 163.801 115.53C163.825 115.295 163.854 115.059 163.871 114.823C163.904 114.334 163.962 113.802 163.759 113.348C163.764 113.329 163.769 113.31 163.774 113.291C164.031 112.475 164.354 111.682 164.683 110.892C164.915 110.335 165.146 109.777 165.39 109.224C165.396 109.216 165.403 109.207 165.41 109.198C165.453 109.141 165.494 109.083 165.534 109.024C165.633 109.063 165.736 109.094 165.842 109.115C166.231 109.193 166.642 109.141 166.999 108.97C167.381 108.788 167.637 108.497 167.849 108.139C168.158 107.613 168.263 106.988 168.413 106.402C168.482 106.132 168.543 105.864 168.601 105.592C168.698 105.134 168.794 104.679 168.864 104.216C168.9 103.981 168.928 103.748 168.951 103.513C168.974 103.281 169.006 103.063 168.988 102.827C168.957 102.431 168.832 102.036 168.593 101.715C168.733 101.616 168.872 101.514 169.012 101.415C169.219 101.271 169.425 101.125 169.631 100.98C169.778 100.988 169.926 100.979 170.07 100.951C170.289 100.91 170.477 100.827 170.669 100.724C170.668 100.724 170.668 100.725 170.667 100.726C170.647 100.736 170.628 100.747 170.609 100.757C170.628 100.747 170.647 100.736 170.667 100.726C170.841 100.631 171.017 100.538 171.19 100.439C171.207 100.437 171.223 100.434 171.239 100.431C171.941 100.308 172.651 100.225 173.351 100.089C173.739 100.013 174.127 99.9354 174.515 99.854C174.828 99.7877 175.144 99.7386 175.46 99.6874C175.679 99.6656 175.898 99.6442 176.115 99.6199C176.48 99.5792 176.854 99.5586 177.214 99.4927C177.834 99.3799 178.449 99.2611 179.065 99.1277C180.169 98.8881 181.275 98.648 182.372 98.3778C183.327 98.1428 184.282 97.9095 185.232 97.6586C185.742 97.5403 186.255 97.437 186.775 97.3707C186.933 97.3506 187.091 97.3363 187.249 97.3179C187.434 97.2973 187.605 97.2654 187.787 97.2297C187.786 97.2297 187.785 97.2302 187.784 97.2302C187.786 97.2297 187.788 97.2293 187.79 97.2289C187.794 97.2283 187.797 97.2275 187.801 97.2268C188.141 97.1496 188.445 97.0139 188.703 96.7631C188.949 96.5252 189.119 96.2168 189.195 95.8853C189.255 95.8328 189.312 95.7754 189.366 95.7128C189.624 95.4153 189.781 95.0658 189.829 94.6957C190.13 94.7364 190.435 94.6604 190.677 94.4833C190.925 94.7057 191.18 94.9223 191.434 95.1363C191.904 95.5303 192.384 95.9075 192.873 96.2764C193.204 96.526 193.542 96.7673 193.882 97.0044C194.052 97.1236 194.222 97.2461 194.395 97.3615C194.505 97.4349 194.615 97.5079 194.725 97.581C194.861 97.6724 195.005 97.7509 195.15 97.8298C195.169 97.8411 195.189 97.8525 195.21 97.8629C195.218 97.8671 195.226 97.8718 195.234 97.876C195.234 97.8755 195.234 97.8755 195.234 97.8751C195.433 97.9729 195.654 98.0228 195.876 98.0228C196.207 98.0228 196.538 97.9124 196.801 97.6854C197.079 97.4462 197.255 97.1001 197.286 96.735C197.326 96.2797 197.139 95.8697 196.818 95.5563C196.786 95.5252 196.755 95.495 196.723 95.4648C196.674 95.0855 196.477 94.7254 196.148 94.4879C195.91 94.3155 195.672 94.1426 195.434 93.9693C195.431 93.9118 195.424 93.8547 195.414 93.7981C195.347 93.4351 195.135 93.1351 194.838 92.9228C194.227 92.4855 193.6 92.0756 192.973 91.6627C192.724 91.499 192.477 91.3337 192.232 91.1646C192.223 91.1495 192.214 91.1344 192.204 91.1193C192.084 90.9317 191.928 90.792 191.752 90.6623C191.482 90.4525 191.209 90.2473 190.93 90.0488C190.833 89.9796 190.733 89.9137 190.632 89.8499C190.365 89.6418 190.097 89.4349 189.827 89.2301C189.457 88.9356 189.103 88.6259 188.743 88.3179C188.635 88.2247 188.526 88.1324 188.415 88.0422C188.302 87.9126 188.184 87.7858 188.064 87.6629C187.885 87.4808 187.693 87.3242 187.483 87.1921C187.589 87.1308 187.696 87.0691 187.802 87.0074C188.932 86.3474 190.134 85.8044 191.318 85.2404C192.798 84.4641 194.282 83.7025 195.786 82.9737C196.584 82.5717 197.38 82.1697 198.195 81.8025C199.082 81.4022 200.054 81.0816 200.972 80.7942C201.533 80.6183 202.102 80.4555 202.67 80.3028C203.252 80.1463 203.849 80.0435 204.446 79.9419C206.687 79.2747 209.142 79.3981 211.304 80.3125C213.716 81.3325 215.679 83.2947 216.699 85.707C217.226 86.9529 217.495 88.3003 217.495 89.6531C217.495 90.5679 217.375 91.4659 217.133 92.3479C216.989 92.765 216.844 93.1817 216.699 93.5988C216.429 94.318 215.847 95.2546 215.379 95.8597C214.846 96.5478 214.236 97.158 213.549 97.6905C212.846 98.2334 212.056 98.6942 211.237 99.037C210.771 99.2321 210.259 99.4172 209.752 99.5317C209.136 99.6706 208.517 99.7999 207.895 99.9065C207.867 99.9111 207.84 99.9157 207.812 99.9207C207.445 100.021 207.078 100.127 206.714 100.237C206.008 100.518 205.322 100.834 205.204 100.89C204.427 101.279 203.649 101.665 202.868 102.046C202.255 102.369 201.645 102.698 201.032 103.02C200.179 103.469 199.306 103.882 198.436 104.298C197.766 104.667 197.111 105.06 196.44 105.429C195.621 105.881 194.785 106.302 193.948 106.719C193.274 107.074 192.613 107.449 191.969 107.854C191.83 107.956 191.688 108.054 191.543 108.149C191.482 108.192 191.421 108.234 191.358 108.276C190.735 108.75 190.134 109.253 189.492 109.701C188.725 110.234 187.96 110.771 187.161 111.255C186.816 111.465 186.475 111.678 186.137 111.897C186.091 111.928 186.046 111.96 186 111.99C185.948 112.025 185.896 112.061 185.844 112.096C185.727 112.176 185.619 112.249 185.518 112.319C185.195 112.567 184.856 112.796 184.503 113.004C184.436 113.048 184.368 113.094 184.3 113.138C184.155 113.235 184.009 113.332 183.862 113.429C182.88 114.079 181.903 114.733 180.885 115.327C179.863 115.924 178.811 116.465 177.792 117.068C177.716 117.113 177.64 117.157 177.564 117.201H177.563C177.551 117.2 177.542 117.203 177.531 117.208C177.515 117.211 177.498 117.214 177.482 117.219C177.456 117.226 177.432 117.237 177.409 117.252C177.385 117.269 177.362 117.288 177.339 117.306C177.332 117.311 177.326 117.316 177.32 117.321C177.278 117.342 177.235 117.362 177.193 117.383C177.111 117.423 177.028 117.462 176.947 117.504C176.947 117.504 176.947 117.504 176.947 117.504C176.942 117.507 176.935 117.51 176.929 117.514C176.928 117.514 176.928 117.514 176.928 117.514C176.928 117.514 176.929 117.514 176.929 117.514C176.929 117.514 176.929 117.514 176.929 117.514C176.909 117.524 176.889 117.535 176.869 117.545C176.866 117.547 176.862 117.549 176.859 117.551C176.859 117.551 176.86 117.55 176.861 117.55C176.853 117.554 176.844 117.558 176.836 117.563C176.838 117.562 176.84 117.561 176.842 117.56C176.836 117.563 176.83 117.566 176.825 117.569C176.825 117.569 176.824 117.569 176.823 117.57C176.822 117.57 176.822 117.57 176.822 117.57C176.821 117.57 176.821 117.57 176.821 117.571H176.821C176.821 117.571 176.82 117.571 176.82 117.571C176.82 117.571 176.82 117.571 176.821 117.571C176.817 117.573 176.812 117.575 176.809 117.577C176.742 117.611 176.672 117.639 176.605 117.673C176.537 117.706 176.469 117.738 176.403 117.776C176.367 117.797 176.33 117.817 176.294 117.839C176.261 117.859 176.228 117.879 176.195 117.899C176.172 117.913 176.148 117.927 176.125 117.941C176.115 117.947 176.105 117.954 176.094 117.959C176.056 117.979 176.018 118 175.979 118.02C175.888 118.066 175.794 118.112 175.701 118.157C175.138 118.363 174.596 118.627 174.086 118.941C174.016 118.972 173.946 119.003 173.876 119.034C173.682 119.12 173.487 119.206 173.293 119.294C172.257 119.855 171.237 120.439 170.17 120.945C169.962 121.044 169.752 121.139 169.541 121.23C169.109 121.364 168.651 121.537 168.263 121.734C168.203 121.755 168.142 121.776 168.081 121.797C168.003 121.821 167.924 121.843 167.847 121.87C167.765 121.899 167.682 121.925 167.6 121.956C167.483 121.994 167.365 122.03 167.247 122.065C167.241 122.067 167.234 122.069 167.228 122.071C166.838 122.186 166.444 122.291 166.047 122.384C164.931 122.644 163.845 123.006 162.732 123.276C162.668 123.291 162.604 123.307 162.54 123.322C162.766 122.384 162.972 121.443 163.034 120.473Z" fill="white"/>
<path d="M30.5097 109.701C29.8668 109.253 29.2651 108.75 28.642 108.276C28.5799 108.234 28.5186 108.192 28.4573 108.148C28.3126 108.054 28.1703 107.955 28.0314 107.854C27.3869 107.449 26.7273 107.074 26.0525 106.718C25.2149 106.302 24.3795 105.88 23.5608 105.429C22.8903 105.06 22.234 104.667 21.5647 104.298C20.6944 103.882 19.822 103.468 18.969 103.02C18.3555 102.698 17.7454 102.369 17.1319 102.046C16.3518 101.665 15.5738 101.279 15.3632 101.174C14.678 100.834 13.9923 100.518 13.2869 100.237C12.9219 100.127 12.5555 100.021 12.1884 99.9206C12.1611 99.9156 12.1334 99.9109 12.1061 99.9063C11.4834 99.7997 10.8645 99.6705 10.2485 99.5316C9.74117 99.4171 9.22965 99.232 8.76346 99.0369C7.94479 98.6941 7.15507 98.2333 6.45222 97.6903C5.76446 97.1578 5.15392 96.5477 4.62184 95.8595C4.15397 95.2545 3.57155 94.3179 3.30174 93.5987C3.15655 93.1816 3.01219 92.7649 2.86743 92.3478C2.62573 91.4657 2.50488 90.5678 2.50488 89.653C2.50488 88.3002 2.77511 86.9528 3.30174 85.7069C4.32181 83.2945 6.28437 81.3324 8.69674 80.3123C10.8586 79.398 13.3134 79.2746 15.555 79.9418C16.1516 80.0434 16.7488 80.1462 17.3304 80.3027C17.8981 80.4554 18.4671 80.6182 19.0281 80.7941C19.9467 81.0815 20.9189 81.4021 21.8056 81.8024C22.6205 82.1695 23.4165 82.5715 24.2142 82.9735C25.7185 83.7024 27.2027 84.464 28.6822 85.2403C29.8672 85.8043 31.0686 86.3473 32.1991 87.0073C32.3048 87.069 32.411 87.1307 32.5171 87.1919C32.3069 87.3241 32.1155 87.4806 31.9368 87.6628C31.8159 87.7857 31.6985 87.9124 31.5847 88.0421C31.4744 88.1323 31.3653 88.2246 31.257 88.3178C30.8978 88.6258 30.5428 88.9354 30.1727 89.23C29.9029 89.4352 29.6352 89.6417 29.3683 89.8498C29.2672 89.9136 29.1673 89.9795 29.07 90.0487C28.7909 90.2472 28.5178 90.4524 28.2475 90.6622C28.0717 90.7918 27.9156 90.9316 27.7956 91.1191C27.7859 91.1342 27.7767 91.1493 27.7675 91.1645C27.5228 91.3336 27.2761 91.4989 27.0273 91.6625C26.3995 92.0754 25.7726 92.4854 25.1617 92.9226C24.8646 93.135 24.6531 93.435 24.586 93.798C24.575 93.8546 24.5683 93.9117 24.5654 93.9692C24.3279 94.1425 24.0895 94.3154 23.8516 94.4878C23.5226 94.7253 23.3258 95.0854 23.2772 95.4647C23.2453 95.4949 23.2138 95.5251 23.1823 95.5562C22.8609 95.8696 22.6742 96.2796 22.7136 96.7349C22.7451 97.0999 22.9213 97.4461 23.1987 97.6853C23.4614 97.9123 23.7933 98.0227 24.1235 98.0227C24.3451 98.0227 24.5662 97.9727 24.7655 97.875C24.7655 97.8754 24.7655 97.8754 24.766 97.8758C24.7735 97.8716 24.7815 97.867 24.7895 97.8628C24.81 97.8523 24.8302 97.841 24.8503 97.8297C24.9942 97.7508 25.1382 97.6723 25.2754 97.5808C25.3853 97.5078 25.4948 97.4348 25.6048 97.3614C25.7781 97.246 25.9476 97.1235 26.1184 97.0043C26.4583 96.7672 26.7961 96.5259 27.1271 96.2762C27.616 95.9074 28.096 95.5302 28.5656 95.1362C28.8203 94.9221 29.0746 94.7056 29.3234 94.4832C29.5647 94.6599 29.8693 94.7363 30.1706 94.6951C30.2189 95.0656 30.3758 95.4148 30.6335 95.7127C30.6876 95.7752 30.7451 95.8327 30.8051 95.8852C30.881 96.2167 31.0518 96.5251 31.2973 96.763C31.4506 96.9121 31.6209 97.0207 31.805 97.1003V110.592C31.3696 110.3 30.94 110 30.5097 109.701Z" fill="white"/>
<path d="M202.149 95.7554C200.258 93.8646 199.18 91.2617 199.18 88.5875C199.18 85.9128 200.258 83.31 202.149 81.4192C204.04 79.5284 206.643 78.45 209.317 78.45C211.991 78.45 214.594 79.5284 216.485 81.4192C218.376 83.31 219.454 85.9128 219.454 88.5875C219.454 91.2617 218.376 93.8646 216.485 95.7554C214.594 97.6462 211.991 98.7246 209.317 98.7246C206.643 98.7246 204.04 97.6462 202.149 95.7554Z" fill="white"/>
<path d="M3.51493 95.7554C1.62413 93.8646 0.546143 91.2617 0.546143 88.5875C0.546143 85.9128 1.62413 83.31 3.51493 81.4192C5.40614 79.5284 8.00902 78.45 10.6832 78.45C13.3579 78.45 15.9608 79.5284 17.8515 81.4192C19.7423 83.31 20.8203 85.9128 20.8203 88.5875C20.8203 91.2617 19.7423 93.8646 17.8515 95.7554C15.9608 97.6462 13.3579 98.7246 10.6832 98.7246C8.00902 98.7246 5.40614 97.6462 3.51493 95.7554Z" fill="white"/>
<path d="M209.237 98.7674C209.107 98.7611 208.98 98.7548 208.855 98.7485C208.62 98.7418 208.386 98.7267 208.153 98.7036C207.589 98.6562 207.041 98.5744 206.52 98.404C206.415 98.3759 206.31 98.3457 206.206 98.3142C205.757 98.2286 205.311 98.1325 204.877 97.9915C202.968 97.3718 201.163 96.5493 199.378 95.6371C198.349 95.1109 197.398 94.4768 196.409 93.8827C195.965 93.6154 195.512 93.3644 195.059 93.1139C194.993 93.0443 194.918 92.9805 194.838 92.923C194.227 92.4857 193.6 92.0758 192.973 91.6629C192.724 91.4992 192.477 91.3339 192.232 91.1648C192.223 91.1497 192.214 91.1346 192.204 91.1195C192.084 90.9319 191.928 90.7922 191.752 90.6625C191.482 90.4527 191.209 90.2475 190.93 90.049C190.833 89.9798 190.733 89.9139 190.632 89.8501C190.365 89.642 190.097 89.4351 189.828 89.2304C189.611 89.0579 189.4 88.8804 189.189 88.7012C188.998 88.5229 188.81 88.3416 188.62 88.162C188.487 88.0504 188.354 87.9388 188.221 87.8272C188.169 87.7718 188.116 87.7168 188.063 87.6627C187.872 87.468 187.666 87.3022 187.438 87.1642C187.184 86.946 186.933 86.7248 186.688 86.4974C186.411 86.2423 186.138 85.9855 185.863 85.7299C185.705 85.6091 185.546 85.4907 185.385 85.3737C184.894 85.0447 184.406 84.7115 183.931 84.3611C183.528 84.0645 183.147 83.7384 182.756 83.4279C182.355 83.109 181.927 82.8245 181.515 82.519C181.298 82.357 181.084 82.1926 180.868 82.0306C179.971 81.4595 179.099 80.8582 178.297 80.1549C177.92 79.8238 177.524 79.5221 177.119 79.2322C176.273 78.6942 175.412 78.1819 174.53 77.7048C173.767 77.3342 173.001 76.9658 172.256 76.563C171.857 76.3473 171.46 76.1291 171.061 75.913C170.952 75.8656 170.843 75.8194 170.734 75.7741C170.598 75.7351 170.463 75.6977 170.326 75.6612C169.422 75.5005 168.516 75.3528 167.614 75.172C166.62 74.9731 165.635 74.7968 164.631 74.676C163.713 74.6424 162.797 74.6378 161.876 74.6596C160.982 74.7263 160.086 74.7897 159.19 74.8274C158.24 74.8681 157.293 74.8048 156.348 74.7225C156.05 74.7188 155.752 74.7209 155.453 74.7246C152.791 74.7548 150.16 73.6303 148.285 71.7554C146.394 69.8646 145.315 67.2613 145.315 64.5875C145.315 61.9129 146.394 59.31 148.285 57.4192C150.191 55.5125 152.767 54.4807 155.453 54.45C156.381 54.4395 157.304 54.4853 158.227 54.5595C158.635 54.5633 159.043 54.5558 159.451 54.5411C161.19 54.4102 162.935 54.2885 164.677 54.3925C166.292 54.4895 167.896 54.5814 169.483 54.9036C170.675 55.1453 171.868 55.3665 173.067 55.5675C174.077 55.737 175.081 55.9485 176.073 56.1986C176.719 56.361 177.469 56.6408 178.051 56.8637C178.306 56.961 178.566 57.0495 178.814 57.1628C180.063 57.7348 181.256 58.4041 182.47 59.041C183.334 59.4556 184.202 59.8685 185.034 60.3402C186.459 61.1467 187.818 62.0275 189.174 62.946C189.65 63.2683 190.106 63.6132 190.545 63.9837C190.868 64.256 191.184 64.528 191.514 64.7869C192.084 65.149 192.652 65.5157 193.192 65.9215C193.646 66.2631 194.092 66.6118 194.558 66.9386C195.359 67.5009 196.094 68.1467 196.891 68.7166C197.233 68.9469 197.574 69.1798 197.911 69.4194C198.496 69.8365 199.023 70.3296 199.559 70.8071C199.931 71.1382 200.294 71.4802 200.658 71.8209C200.986 72.0949 201.315 72.3668 201.638 72.6467C202.463 73.3617 203.243 74.1175 204.056 74.8442C204.162 74.9349 204.269 75.0243 204.377 75.1111C205.201 75.5949 206.067 76.0099 206.874 76.5219C207.638 77.0065 208.404 77.474 209.195 77.9062C209.633 78.1068 210.075 78.2985 210.521 78.4823C212.775 78.7945 214.885 79.7789 216.503 81.3974C217.741 82.6353 218.653 84.192 219.118 85.881C219.489 87.2313 219.524 88.5665 219.387 89.9517C219.343 90.4019 219.253 90.8459 219.116 91.2823C218.761 92.4002 218.655 92.6918 218.091 93.7152C217.88 94.0988 217.636 94.4609 217.357 94.8033C216.576 95.8133 215.559 96.7713 214.431 97.3743C213.681 97.7763 212.817 98.2253 211.974 98.4053C211.131 98.5857 210.37 98.7741 209.518 98.7741C209.425 98.7741 209.332 98.772 209.237 98.7674Z" fill="white"/>
<path d="M8.02648 98.4052C-2.65948 95.3819 -1.55042 79.9622 9.48003 78.4822C11.7527 77.5108 13.8466 76.1257 15.9446 74.8446C18.9617 72.0239 22.0786 69.3329 25.4427 66.9386C28.5957 64.7024 31.5628 62.2057 34.9663 60.3397C37.9271 58.8903 40.7171 57.083 43.9272 56.1981C47.6874 55.3949 51.4707 54.5611 55.3232 54.3925C56.6995 54.3425 58.0721 54.3954 59.4446 54.4483C61.1437 54.5137 62.8427 54.5792 64.5472 54.4504C73.3654 54.2766 78.1054 65.6382 71.7159 71.7554C68.4761 75.1148 63.9287 74.9268 59.5307 74.7388C58.1115 74.678 56.7079 74.6171 55.3689 74.6759C53.3266 74.9637 51.2839 75.3473 49.2664 75.774C47.9857 76.3825 46.7672 77.1206 45.4701 77.7047C43.1245 78.8099 41.297 80.6517 39.1327 82.0305C36.8571 83.6368 34.6877 85.3644 32.5715 87.1586C32.3399 87.2975 32.1309 87.4654 31.9367 87.6626C31.8704 87.7302 31.8049 87.799 31.7407 87.8691C31.2401 88.3004 30.742 88.7347 30.2456 89.172C30.2217 89.1917 30.1973 89.211 30.173 89.2303C29.9036 89.4351 29.6359 89.6419 29.3686 89.8496C29.2675 89.9134 29.1676 89.9797 29.0703 90.049C28.7912 90.2474 28.518 90.4526 28.2482 90.6624C28.0724 90.7921 27.9159 90.9314 27.7959 91.1194C27.7862 91.1345 27.777 91.1492 27.7682 91.1647C27.5236 91.3338 27.2764 91.4987 27.0276 91.6628C26.3998 92.0757 25.7729 92.4857 25.1619 92.9229C25.0675 92.9905 24.9815 93.0668 24.9064 93.1512C20.6192 95.8619 15.3022 98.7304 10.6038 98.7304C9.7188 98.7308 8.85649 98.6289 8.02648 98.4052Z" fill="white"/>
<path d="M64.5112 75.6349C64.5088 75.6349 64.5069 75.6349 64.5044 75.635C64.5063 75.6349 64.5088 75.6349 64.5112 75.6349Z" fill="white"/>
<path d="M145.43 66.7778C145.372 66.6246 145.358 66.5881 145.319 66.4837C144.982 65.9877 144.653 65.4841 144.368 64.9563C143.864 63.9551 143.062 63.1523 142.373 62.2787C141.384 61.1831 140.224 60.2637 139.198 59.205C138.365 58.5651 137.519 57.9327 136.667 57.3171C135.847 56.7859 135.061 56.206 134.284 55.6139C133.39 55.0995 132.43 54.7122 131.499 54.2715C130.415 53.7798 129.36 53.2343 128.305 52.6875C126.838 52.0342 125.289 51.5864 123.837 50.8936C122.341 50.229 120.821 49.6109 119.281 49.0532C117.943 48.5765 116.72 47.8724 115.567 47.0453C115.144 46.7415 114.757 46.3937 114.376 46.0395C113.961 45.7856 113.542 45.5372 113.125 45.285C111.975 44.6149 110.965 43.7639 110 42.858C109.035 43.7639 108.025 44.6145 106.875 45.285C106.459 45.5372 106.04 45.7856 105.624 46.0395C105.243 46.3937 104.857 46.7415 104.433 47.0453C103.281 47.8724 102.057 48.5765 100.719 49.0532C99.1791 49.6109 97.6593 50.229 96.1629 50.8936C94.711 51.5864 93.1622 52.0342 91.6953 52.6875C90.6399 53.2343 89.585 53.7798 88.5016 54.2715C87.5704 54.7122 86.6099 55.0995 85.7166 55.6139C84.9403 56.206 84.1535 56.7855 83.3336 57.3167C82.4813 57.9323 81.6362 58.5651 80.8024 59.205C79.7765 60.2637 78.6162 61.1831 77.6272 62.2787C77.0829 62.9362 76.5366 63.5959 76.018 64.2735C75.592 65.0272 75.1749 65.7892 74.6718 66.4975C74.0239 71.1389 70.5373 74.9889 65.7994 75.552C58.2015 76.4621 52.5945 69.4738 54.7153 62.2006C54.9557 61.3761 55.2881 60.5809 55.5843 59.7752C56.0425 58.2608 56.7156 56.8144 57.6362 55.5443C58.3353 54.3723 58.9832 53.1449 59.8275 52.0677C61.5244 49.861 63.325 47.7045 65.4315 45.8729C66.4767 44.8457 67.5241 43.8126 68.6969 42.9281C69.7841 42.0985 70.8869 41.2974 72.0186 40.5308C73.2011 39.6664 74.355 38.7529 75.626 38.0177C77.4098 36.9729 79.3527 36.2054 81.2149 35.3116C82.3164 34.7292 83.4154 34.1337 84.5723 33.6734C85.6129 33.2593 86.6754 32.9143 87.7051 32.4704C89.3378 31.7377 90.9832 31.029 92.6725 30.4352C93.6943 29.5255 94.8894 28.8445 96.0496 28.1315C96.7374 27.4857 97.4461 26.8588 98.2069 26.3007C98.5795 25.8606 98.9639 25.4292 99.3675 25.0184C99.827 24.6051 100.184 24.0369 100.599 23.6072C100.994 23.1599 101.335 22.8381 101.883 22.3899C103.177 20.9876 104.842 19.9347 106.697 19.4278C107.775 19.1312 108.893 19.02 110 19.0875C113.011 18.8777 116.076 20.137 118.094 22.3702C118.643 22.8217 119.006 23.1545 119.401 23.6072C119.815 24.0378 120.174 24.6055 120.633 25.0184C121.037 25.4292 121.421 25.8606 121.794 26.3007C122.021 26.4686 122.248 26.6373 122.464 26.819C122.971 27.2432 123.474 27.6742 123.951 28.1315C124.913 28.7186 125.887 29.2922 126.783 29.9783C126.968 30.1268 127.149 30.2796 127.328 30.4352C127.615 30.5376 127.903 30.6358 128.187 30.7399C129.112 31.1066 130.033 31.4922 130.955 31.8678C132.407 32.5686 133.924 33.1015 135.428 33.6734C137.123 34.3532 138.685 35.3225 140.364 36.0421C141.709 36.6724 143.101 37.2523 144.374 38.0177C145.645 38.7533 146.8 39.6664 147.982 40.5308C150.332 42.114 152.599 43.8273 154.569 45.8729C156.675 47.7045 158.476 49.861 160.173 52.0677C161.016 53.1445 161.666 54.3723 162.364 55.5443C162.939 56.391 163.476 57.2374 163.861 58.2147C164.164 58.9813 164.399 59.7736 164.704 60.5402C165.114 61.6102 165.513 62.7113 165.632 63.8548C166.506 70.1465 161.734 75.7756 155.326 75.6238C155.381 75.6275 155.436 75.6313 155.485 75.6347C155.434 75.6355 155.383 75.6359 155.332 75.636C150.427 75.6363 145.967 71.6619 145.43 66.7778Z" fill="white"/>
<path d="M168.591 120.9C165.789 120.258 163.316 118.47 161.82 116.016C160.372 113.64 159.906 110.732 160.527 108.022C160.841 106.648 161.429 105.344 162.247 104.197C163.069 103.045 164.169 101.95 165.411 101.251C165.447 101.23 165.484 101.21 165.52 101.188C165.526 101.185 165.532 101.181 165.538 101.178C165.542 101.176 165.546 101.173 165.55 101.171C165.599 101.143 165.648 101.115 165.697 101.088C166.23 100.784 166.762 100.478 167.295 100.174C169.065 99.1623 170.835 98.151 172.604 97.1393C174.409 96.1074 176.214 95.0756 178.019 94.0442C179.849 92.9981 181.679 91.9524 183.509 90.9063C185.376 89.8388 187.243 88.7713 189.111 87.7042C190.81 86.7332 192.508 85.7618 194.207 84.7912C195.615 83.9864 197.023 83.1816 198.431 82.3767C199.456 81.7914 200.48 81.2052 201.505 80.6198C202.082 80.29 202.659 79.9589 203.237 79.6295C204.463 78.9313 205.728 78.4227 207.129 78.1995C208.489 77.9834 209.889 78.0295 211.232 78.3371C214.033 78.9787 216.507 80.7667 218.002 83.2206C219.45 85.596 219.916 88.5044 219.295 91.2151C218.98 92.5885 218.394 93.8931 217.575 95.0399C216.75 96.1964 215.653 97.2782 214.411 97.9856C214.208 98.1019 214.004 98.2181 213.801 98.3348C212.897 98.8517 211.993 99.3683 211.089 99.8848C209.911 100.558 208.734 101.231 207.557 101.904C206.038 102.772 204.518 103.64 203 104.509C201.156 105.564 199.311 106.617 197.467 107.671C195.608 108.734 193.749 109.797 191.889 110.859C190.086 111.89 188.284 112.92 186.481 113.951C184.728 114.952 182.975 115.954 181.223 116.956C179.725 117.813 178.229 118.671 176.729 119.525C176.728 119.525 176.726 119.526 176.725 119.527C176.678 119.554 176.632 119.581 176.585 119.607C175.353 120.301 174.098 120.814 172.693 121.037C172.132 121.126 171.565 121.171 170.997 121.171C170.188 121.171 169.379 121.081 168.591 120.9Z" fill="white"/>
<path d="M28.1103 110.859C26.2509 109.797 24.3916 108.734 22.5327 107.671C20.6889 106.617 18.8439 105.564 17.0001 104.509C15.4815 103.64 13.9621 102.772 12.443 101.904C11.2656 101.231 10.0882 100.558 8.9107 99.8849C8.00643 99.3683 7.10257 98.8518 6.19872 98.3348C5.99521 98.2182 5.79169 98.1019 5.58817 97.9857C4.34696 97.2782 3.24965 96.1965 2.42427 95.04C1.60601 93.8932 1.01939 92.5886 0.704678 91.2152C0.0836509 88.5045 0.54942 85.5961 1.99752 83.2207C3.49303 80.7667 5.96667 78.9788 8.76803 78.3372C10.1104 78.0296 11.5107 77.9834 12.8706 78.1995C14.2713 78.4228 15.5364 78.9313 16.7626 79.6296C17.3404 79.959 17.9174 80.2901 18.4943 80.6199C19.5194 81.2052 20.5437 81.7915 21.5684 82.3768C22.9767 83.1816 24.3845 83.9865 25.7923 84.7913C27.4913 85.7619 29.1899 86.7333 30.889 87.7043C31.1944 87.8784 31.4999 88.0534 31.805 88.2279V89.6857V93.4967V112.971C30.5734 112.267 29.3418 111.563 28.1103 110.859Z" fill="white"/>
<path d="M59.4951 112.544C59.5108 112.524 59.5265 112.503 59.5421 112.482C59.5348 112.52 59.5274 112.557 59.5197 112.594C59.5116 112.578 59.5034 112.561 59.4951 112.544Z" fill="white"/>
<path d="M188.467 88.7496C188.433 88.7188 188.417 88.6767 188.397 88.636C188.369 88.5867 188.339 88.5381 188.312 88.4881C188.302 88.4698 188.293 88.4511 188.283 88.4324C188.274 88.4178 188.265 88.403 188.257 88.3879C188.232 88.3427 188.21 88.296 188.188 88.2495C188.058 88.026 187.917 87.8087 187.772 87.5945C187.723 87.5294 187.674 87.4631 187.623 87.3992C187.584 87.3585 187.542 87.3209 187.501 87.2817C187.466 87.2479 187.434 87.2124 187.402 87.1765C187.362 87.1368 187.322 87.0988 187.283 87.0581C187.241 87.0123 187.2 86.9641 187.16 86.9163C187.114 86.8677 187.067 86.8197 187.022 86.7702C186.981 86.7257 186.942 86.6793 186.902 86.6345C186.892 86.6246 186.883 86.6146 186.873 86.6049C186.828 86.5578 186.804 86.4961 186.806 86.4354C186.781 86.409 186.754 86.3828 186.728 86.3569C186.679 86.3085 186.619 86.2527 186.584 86.1874C186.569 86.1708 186.554 86.1543 186.539 86.1379C186.483 86.0793 186.424 86.0217 186.374 85.9587C186.345 85.9218 186.316 85.884 186.295 85.8416C186.257 85.764 186.275 85.6662 186.333 85.6041C186.386 85.5487 186.466 85.524 186.541 85.542C186.594 85.555 186.634 85.5861 186.668 85.6272C186.722 85.6903 186.772 85.7558 186.828 85.8161L186.83 85.8185C186.867 85.8563 186.907 85.8947 186.937 85.9381C186.953 85.9558 186.969 85.9735 186.985 85.9911C187.068 86.07 187.148 86.1493 187.224 86.2344C187.259 86.2738 187.295 86.3133 187.329 86.354C187.364 86.3954 187.394 86.4396 187.429 86.4803C187.478 86.5282 187.531 86.5733 187.575 86.6259C187.608 86.6653 187.638 86.7065 187.672 86.7451C187.736 86.8194 187.795 86.8981 187.862 86.9712C187.931 87.0426 187.998 87.1152 188.06 87.1945C188.118 87.2692 188.208 87.3455 188.208 87.4483C188.208 87.4568 188.208 87.4652 188.207 87.4734C188.224 87.5 188.241 87.5265 188.259 87.553C188.3 87.5321 188.348 87.5244 188.393 87.5311C188.425 87.5202 188.457 87.5176 188.489 87.522C188.475 87.4728 188.461 87.4238 188.445 87.3749C188.407 87.2641 188.475 87.1399 188.585 87.1055C188.699 87.0703 188.818 87.1357 188.855 87.2465C188.894 87.3628 188.921 87.4796 188.946 87.5993C188.949 87.6099 188.952 87.6204 188.956 87.6308C189.005 87.7477 189.062 87.8608 189.108 87.9796C189.152 88.0941 189.234 88.2406 189.145 88.3543C189.062 88.4592 188.92 88.4683 188.827 88.3865C188.821 88.3873 188.815 88.3879 188.809 88.3883C188.803 88.3886 188.797 88.3886 188.791 88.3885C188.792 88.3941 188.792 88.3997 188.793 88.4055C188.793 88.4169 188.792 88.4281 188.791 88.4392C188.808 88.477 188.822 88.5174 188.826 88.5561C188.838 88.6522 188.795 88.7462 188.704 88.7878C188.676 88.801 188.646 88.8073 188.616 88.8073C188.562 88.8073 188.509 88.787 188.467 88.7496Z" fill="white"/>
<path d="M31.2955 88.7878C31.2049 88.7462 31.1617 88.6523 31.1738 88.5562C31.1785 88.5174 31.192 88.477 31.2089 88.4392C31.2076 88.4281 31.207 88.4169 31.2074 88.4055C31.2077 88.3998 31.2083 88.3941 31.209 88.3885C31.2031 88.3887 31.1971 88.3886 31.191 88.3883C31.1848 88.388 31.1787 88.3874 31.1726 88.3865C31.0797 88.4683 30.9377 88.4592 30.8553 88.3543C30.7655 88.2406 30.8482 88.0942 30.8922 87.9796C31.0079 87.7436 31.0798 87.4999 31.1453 87.2465C31.1822 87.1358 31.301 87.0703 31.4147 87.1055C31.6128 87.1746 31.5688 87.3673 31.5112 87.522C31.5426 87.5176 31.5749 87.5203 31.6067 87.5311C31.6523 87.5244 31.7002 87.5321 31.7413 87.553C31.7588 87.5266 31.776 87.5 31.7932 87.4735C31.7777 87.36 31.8768 87.2748 31.94 87.1945C32.0651 87.0404 32.2062 86.9018 32.3282 86.7451C32.5873 86.4371 32.8776 86.1314 33.1506 85.8387C33.2571 85.7448 33.3164 85.5855 33.4595 85.5421C33.6269 85.4964 33.7843 85.6861 33.705 85.8417C33.5619 86.0579 33.3702 86.2478 33.1936 86.4354C33.2003 86.5776 33.0561 86.6665 32.9782 86.7703C32.737 87.0539 32.448 87.2944 32.2276 87.5945C32.0436 87.8652 31.8663 88.1414 31.7166 88.4324C31.6227 88.5911 31.5355 88.8916 31.2955 88.7878Z" fill="white"/>
</g>
<mask id="mask1_24_481" style="mask-type:luminance" maskUnits="userSpaceOnUse" x="37" y="99" width="147" height="103">
<path d="M37.9524 99.8755H183.022V201.59H37.9524V99.8755Z" fill="white"/>
</mask>
<g mask="url(#mask1_24_481)">
<path d="M163.802 164.433C161.792 162.428 160.658 159.678 160.647 156.841C160.645 156.459 160.644 156.076 160.642 155.694C160.634 153.555 160.627 151.416 160.618 149.277C160.611 147.108 160.603 144.939 160.595 142.77C160.586 140.541 160.578 138.312 160.57 136.082C160.562 133.904 160.554 131.727 160.545 129.548C160.537 127.41 160.53 125.271 160.522 123.133C160.514 121.015 160.506 118.898 160.498 116.781C160.49 114.741 160.5 112.7 160.476 110.66C160.442 107.839 161.628 105.051 163.613 103.061C165.614 101.055 168.371 99.9091 171.205 99.9057C174.039 99.9023 176.799 101.042 178.805 103.043C180.818 105.051 181.943 107.796 181.96 110.635C181.963 111.097 181.964 111.559 181.965 112.02C181.973 114.2 181.981 116.381 181.989 118.561C181.997 120.651 182.005 122.74 182.013 124.831C182.021 126.996 182.029 129.162 182.037 131.328C182.045 133.517 182.053 135.705 182.061 137.894C182.069 140.115 182.078 142.335 182.086 144.556C182.094 146.707 182.102 148.857 182.11 151.007C182.117 152.944 182.123 154.88 182.131 156.816C182.142 159.647 180.991 162.413 178.993 164.415C176.992 166.422 174.235 167.567 171.401 167.571C171.397 167.571 171.393 167.571 171.389 167.571C168.56 167.57 165.805 166.432 163.802 164.433Z" fill="white"/>
<path d="M48.5981 167.571C46.6066 167.568 44.6541 167.002 42.9744 165.97C46.743 161.126 48.8469 155.089 48.8469 148.911C48.8469 141.595 45.8962 134.476 40.7248 129.303C39.8612 128.439 38.9431 127.638 37.9792 126.902C37.9818 126.211 37.9843 125.521 37.9868 124.831C37.9908 123.791 37.9946 122.751 37.9985 121.711C38.0002 121.71 38.0019 121.71 38.0036 121.709V120.343C38.0058 119.749 38.008 119.155 38.0103 118.561C38.0183 116.381 38.0267 114.2 38.0342 112.02C38.0359 111.559 38.0367 111.097 38.0397 110.635C38.0565 107.796 39.1814 105.051 41.1948 103.043C43.2005 101.042 45.9604 99.9023 48.794 99.9057C51.6281 99.9091 54.385 101.055 56.3866 103.061C58.3718 105.051 59.5576 107.839 59.524 110.66C59.4997 112.7 59.5089 114.741 59.501 116.781C59.4934 118.898 59.4854 121.015 59.4775 123.133C59.4695 125.271 59.4619 127.41 59.454 129.548C59.4456 131.726 59.4376 133.904 59.4296 136.082C59.4212 138.312 59.4133 140.541 59.4049 142.77C59.3965 144.939 59.3889 147.108 59.381 149.277C59.373 151.416 59.365 153.555 59.357 155.694C59.3558 156.076 59.3541 156.459 59.3528 156.841C59.3419 159.678 58.2077 162.428 56.1978 164.433C54.1949 166.432 51.4401 167.571 48.6107 167.571C48.6065 167.571 48.6027 167.571 48.5981 167.571Z" fill="white"/>
<path d="M110 201.533C107.235 201.55 104.471 201.471 101.725 201.128C100.124 200.928 98.5283 200.715 96.9472 200.395C96.8356 200.373 96.7248 200.348 96.6141 200.322C94.787 200.026 92.9688 199.681 91.1586 199.272C88.0044 198.558 84.8732 197.708 81.794 196.718C78.6721 195.714 75.6106 194.533 72.5906 193.256C69.9722 192.149 67.4045 190.919 64.9053 189.565C62.0083 187.995 59.1683 186.324 56.4634 184.441C53.8904 182.649 51.3844 180.732 49.0786 178.603C48.9217 178.459 48.766 178.313 48.6107 178.166C48.5235 178.083 48.437 178 48.3502 177.917C48.0552 177.633 47.7619 177.347 47.4685 177.061C47.4035 176.998 47.338 176.934 47.273 176.871C47.2487 176.847 47.2247 176.824 47.2008 176.8C47.2004 176.8 47.2004 176.8 47.2 176.8C47.1802 176.781 47.1605 176.761 47.1412 176.742C47.0695 176.672 46.9981 176.602 46.9272 176.532C45.9827 175.602 45.0776 174.629 44.2274 173.611C43.0907 172.25 41.982 170.845 41.0152 169.356C40.8672 169.128 40.7205 168.898 40.5752 168.667C40.6253 168.618 40.6752 168.569 40.7249 168.519C45.8962 163.346 48.847 156.227 48.847 148.911C48.847 148.858 48.8468 148.806 48.8465 148.754C49.6419 148.829 50.431 148.993 51.1964 149.247C52.5082 149.681 53.7339 150.369 54.7858 151.265C55.1215 151.591 55.4568 151.917 55.7925 152.243C56.4404 152.963 56.9821 153.756 57.4168 154.623C57.4462 154.692 57.4756 154.76 57.505 154.83C57.7945 155.498 58.1193 156.151 58.4709 156.789C58.9363 157.53 59.4352 158.249 59.9614 158.948C60.7322 159.886 61.548 160.784 62.3985 161.65C62.5823 161.816 62.7602 161.989 62.9327 162.168C64.2541 163.393 65.6405 164.547 67.0735 165.64C69.1372 167.142 71.2864 168.525 73.4966 169.801C73.5738 169.846 73.6506 169.89 73.7282 169.935C75.9979 171.183 78.3234 172.326 80.6938 173.371C81.3585 173.665 82.0269 173.949 82.6983 174.226C85.0687 175.161 87.4736 176.003 89.9094 176.75C90.919 177.06 91.9349 177.351 92.955 177.626C95.4442 178.258 97.9581 178.789 100.492 179.209C100.665 179.232 100.837 179.26 101.009 179.292C101.574 179.383 102.14 179.466 102.708 179.545C105.128 179.836 107.562 180.023 110 180.073C112.437 180.023 114.87 179.836 117.289 179.545C117.858 179.467 118.424 179.383 118.991 179.292C119.162 179.26 119.335 179.232 119.508 179.209C122.041 178.789 124.555 178.258 127.045 177.626C128.064 177.351 129.08 177.06 130.09 176.75C132.526 176.003 134.931 175.161 137.301 174.226C137.972 173.949 138.641 173.665 139.306 173.371C141.676 172.326 144.001 171.183 146.272 169.935C146.349 169.89 146.426 169.846 146.503 169.801C148.713 168.525 150.862 167.142 152.926 165.64C154.359 164.547 155.746 163.393 157.067 162.168C157.239 161.989 157.417 161.816 157.601 161.65C158.452 160.784 159.267 159.886 160.038 158.948C160.564 158.249 161.063 157.53 161.528 156.789C161.883 156.146 162.209 155.489 162.501 154.815C162.528 154.751 162.556 154.687 162.583 154.623C163.018 153.756 163.559 152.963 164.207 152.243C164.543 151.917 164.878 151.591 165.214 151.265C166.266 150.369 167.492 149.681 168.803 149.247C171.493 148.355 174.471 148.572 177.003 149.843C179.536 151.115 181.488 153.374 182.38 156.064C182.814 157.375 182.995 158.769 182.904 160.148C182.842 161.096 182.657 162.019 182.349 162.917C182.076 163.568 181.81 164.229 181.515 164.872C180.8 166.43 179.916 167.92 178.984 169.356C178.018 170.845 176.909 172.25 175.772 173.611C174.922 174.629 174.017 175.602 173.072 176.532C173.002 176.602 172.93 176.672 172.858 176.742C172.839 176.761 172.819 176.781 172.799 176.8C172.799 176.8 172.799 176.8 172.799 176.8C172.774 176.824 172.751 176.847 172.727 176.871C172.661 176.934 172.596 176.998 172.531 177.061C172.237 177.347 171.944 177.633 171.649 177.917C171.563 178 171.476 178.083 171.389 178.166C171.234 178.313 171.078 178.459 170.921 178.603C168.615 180.732 166.109 182.649 163.536 184.441C160.831 186.324 157.991 187.995 155.094 189.565C152.595 190.919 150.027 192.149 147.409 193.256C144.389 194.533 141.328 195.714 138.206 196.718C135.126 197.708 131.995 198.558 128.841 199.272C127.031 199.681 125.213 200.026 123.385 200.322C123.275 200.348 123.164 200.373 123.052 200.395C121.471 200.715 119.876 200.928 118.275 201.128C115.744 201.444 113.199 201.536 110.651 201.536C110.434 201.536 110.217 201.535 110 201.533Z" fill="white"/>
<path d="M181.728 164.395C181.937 163.904 182.142 163.411 182.349 162.919C182.16 163.368 181.971 163.816 181.782 164.265C181.782 164.265 181.783 164.265 181.783 164.264C175.194 161.499 168.605 158.735 162.016 155.97C162.015 155.972 162.014 155.975 162.013 155.977C162.202 155.528 162.391 155.079 162.58 154.63C162.171 155.602 161.687 156.54 161.153 157.448C161.4 157.029 161.647 156.609 161.895 156.19C161.201 157.357 160.424 158.471 159.584 159.538C159.878 159.164 160.173 158.791 160.467 158.417C159.361 159.815 158.153 161.127 156.877 162.372C157.213 162.046 157.548 161.72 157.883 161.394C157.529 161.738 157.174 162.083 156.819 162.428C157.154 162.102 157.49 161.776 157.825 161.45C156.115 163.105 154.285 164.63 152.379 166.054C152.75 165.777 153.121 165.501 153.492 165.225C151.256 166.888 148.916 168.408 146.503 169.801C146.23 169.959 145.957 170.114 145.682 170.269C146.083 170.044 146.484 169.819 146.885 169.594C144.421 170.976 141.89 172.232 139.306 173.372C138.441 173.753 137.57 174.119 136.694 174.475C137.118 174.303 137.543 174.132 137.968 173.96C135.383 175.002 132.755 175.933 130.09 176.751C128.857 177.129 127.615 177.479 126.367 177.807C126.81 177.691 127.254 177.575 127.697 177.459C124.937 178.179 122.146 178.777 119.331 179.238C118.41 179.389 117.486 179.523 116.561 179.643C117.016 179.584 117.472 179.525 117.928 179.466C115.205 179.814 112.463 180.034 109.718 180.078C109.339 180.084 108.96 180.087 108.58 180.088C109.043 180.088 109.506 180.088 109.968 180.088C107.557 180.086 105.145 179.95 102.754 179.636C103.217 179.697 103.681 179.758 104.145 179.819C103.138 179.686 102.136 179.52 101.14 179.319C98.4162 178.767 95.5154 179.339 93.1875 180.849C90.7769 182.414 89.0674 184.943 88.5053 187.761C87.9611 190.489 88.5222 193.38 90.0361 195.713C91.6038 198.129 94.1278 199.825 96.9474 200.395C98.5284 200.715 100.124 200.929 101.725 201.128C104.738 201.504 107.772 201.563 110.806 201.527C113.554 201.494 116.298 201.285 119.024 200.944C122.324 200.532 125.596 200.006 128.841 199.272C131.995 198.559 135.126 197.708 138.206 196.718C141.328 195.715 144.389 194.533 147.409 193.257C150.028 192.15 152.595 190.92 155.094 189.565C157.991 187.995 160.831 186.325 163.536 184.442C166.109 182.65 168.615 180.732 170.921 178.604C171.078 178.459 171.234 178.313 171.389 178.166C171.476 178.084 171.563 178 171.649 177.917C172.034 177.547 172.416 177.173 172.799 176.801C173.093 176.427 173.387 176.053 173.682 175.679C174.234 174.87 174.67 174.001 174.99 173.074C175.597 171.304 175.727 169.387 175.369 167.55C174.833 164.802 173.214 162.325 170.903 160.742C168.541 159.125 165.582 158.507 162.773 159.055C160.025 159.591 157.548 161.21 155.965 163.521C154.08 166.274 153.577 169.813 154.627 172.98C155.518 175.67 157.47 177.929 160.003 179.2C162.535 180.472 165.513 180.689 168.203 179.797C168.628 179.626 169.053 179.454 169.477 179.283C170.314 178.881 171.086 178.38 171.793 177.779C172.148 177.434 172.504 177.089 172.859 176.743C172.93 176.673 173.001 176.603 173.072 176.533C174.017 175.602 174.922 174.63 175.772 173.612C176.909 172.251 178.018 170.846 178.985 169.356C179.916 167.921 180.8 166.43 181.515 164.872C181.81 164.229 182.076 163.568 182.349 162.918C182.657 162.019 182.842 161.096 182.905 160.149C182.995 158.769 182.814 157.376 182.38 156.064C181.488 153.374 179.536 151.115 177.003 149.844C174.471 148.572 171.493 148.355 168.803 149.247C167.492 149.682 166.266 150.369 165.214 151.265C164.878 151.591 164.543 151.917 164.207 152.243C163.559 152.964 163.018 153.757 162.583 154.623C162.39 155.072 162.198 155.538 162.006 155.995C162.195 155.546 162.384 155.097 162.572 154.648C162.558 154.683 162.543 154.718 162.528 154.754C162.339 155.202 162.15 155.651 161.961 156.1C161.653 156.999 161.468 157.922 161.406 158.869C161.316 160.248 161.496 161.642 161.931 162.954C162.822 165.643 164.775 167.902 167.307 169.174C169.84 170.446 172.818 170.662 175.507 169.771C176.819 169.336 178.044 168.648 179.097 167.752C179.432 167.426 179.768 167.1 180.103 166.774C180.751 166.054 181.293 165.261 181.728 164.395Z" fill="white"/>
</g>
<mask id="mask2_24_481" style="mask-type:luminance" maskUnits="userSpaceOnUse" x="-1" y="92" width="44" height="104">
<path d="M-0.288574 92.5575H42.5216V195.121H-0.288574V92.5575Z" fill="white"/>
</mask>
<g mask="url(#mask2_24_481)">
<path d="M20.9309 195.082C19.5172 195.082 18.1408 194.514 17.1392 193.516C16.1431 192.524 15.5464 191.132 15.5585 189.721C15.5866 186.547 15.6156 183.372 15.6441 180.199C15.6794 176.273 15.7146 172.347 15.7499 168.422C15.7851 164.463 15.8208 160.505 15.8565 156.546C15.8917 152.581 15.9274 148.615 15.963 144.649C15.9983 140.744 16.0331 136.838 16.0684 132.932C16.1036 128.979 16.1393 125.026 16.1745 121.074C16.2094 117.203 16.2442 113.332 16.2786 109.461C16.2958 107.553 16.313 105.644 16.3299 103.736C17.2648 104.329 18.1958 104.931 19.1454 105.5C21.3194 106.802 23.5166 108.061 25.7162 109.319C26.1481 109.568 26.5813 109.814 27.0156 110.059C26.9986 111.97 26.9814 113.881 26.9641 115.793C26.9289 119.689 26.8941 123.586 26.8592 127.483C26.8236 131.436 26.7883 135.388 26.7526 139.341C26.7174 143.265 26.6822 147.189 26.6469 151.113C26.6117 155.062 26.5764 159.011 26.5407 162.96C26.5051 166.959 26.469 170.957 26.4333 174.956C26.3998 178.662 26.3666 182.368 26.3335 186.074C26.3234 187.222 26.3129 188.369 26.3024 189.517C26.302 189.578 26.3016 189.639 26.3007 189.701C26.2869 191.124 25.7435 192.489 24.7347 193.502C23.7348 194.505 22.3567 195.079 20.9401 195.082C20.9372 195.082 20.9338 195.082 20.9309 195.082Z" fill="white"/>
<path d="M11.1272 92.9661C11.1839 92.8378 11.2431 92.7105 11.3049 92.5844C11.3254 92.6133 11.3466 92.6418 11.3685 92.6699C11.3676 92.6825 11.3672 92.6946 11.3664 92.7072C11.3212 92.8144 11.2834 92.9244 11.2529 93.0363C11.211 93.0129 11.1691 92.9895 11.1272 92.9661Z" fill="white"/>
<path d="M13.8436 191.947C11.8315 189.935 10.7137 187.192 10.6973 184.351C10.6885 182.758 10.6793 181.164 10.6704 179.571C10.6511 176.154 10.6314 172.737 10.6121 169.32C10.5916 165.755 10.5714 162.19 10.5509 158.625C10.5311 155.095 10.511 151.564 10.4908 148.034C10.4707 144.508 10.4506 140.983 10.4304 137.457C10.4107 133.949 10.3906 130.441 10.3708 126.933C10.3519 123.667 10.3335 120.401 10.315 117.137C10.2974 114.036 10.2798 110.936 10.2622 107.836C10.248 105.379 10.2342 102.923 10.22 100.466C10.5437 100.619 10.8681 100.772 11.1912 100.928C11.9217 101.31 12.6498 101.698 13.3799 102.081C14.2878 102.558 15.1762 103.073 16.0722 103.573C17.0941 104.218 18.1086 104.879 19.1454 105.5C21.3195 106.802 23.5166 108.061 25.7162 109.319C27.2835 110.223 28.8692 111.095 30.4549 111.967C30.8943 112.208 31.334 112.449 31.7742 112.688C31.7918 115.785 31.809 118.88 31.8267 121.976C31.8464 125.366 31.8653 128.756 31.8846 132.146C31.9043 135.61 31.924 139.075 31.9437 142.539C31.9643 146.102 31.984 149.666 32.0046 153.229C32.0256 156.788 32.0453 160.347 32.0654 163.906C32.0856 167.425 32.1057 170.944 32.1254 174.463C32.141 177.17 32.1569 179.878 32.1716 182.585C32.175 183.174 32.1783 183.763 32.1817 184.352C32.198 187.179 31.0307 189.952 29.0354 191.948C27.0317 193.951 24.2731 195.094 21.4395 195.094C18.6054 195.093 15.8472 193.951 13.8436 191.947Z" fill="white"/>
<path d="M5.99976 163.769C2.01306 159.78 -0.261719 154.292 -0.261719 148.652C-0.261719 143.012 2.01306 137.523 5.99976 133.535C9.98814 129.547 15.4763 127.274 21.1165 127.274C26.7567 127.274 32.2449 129.548 36.2333 133.535C40.22 137.523 42.4948 143.012 42.4948 148.652C42.4948 154.292 40.22 159.78 36.2333 163.769C32.2449 167.755 26.7567 170.03 21.1165 170.03C15.4763 170.03 9.98814 167.755 5.99976 163.769Z" fill="white"/>
<path d="M-0.186768 194.974L20.799 130.196L41.7847 194.974H-0.186768Z" fill="white"/>
</g>
</g>
<defs>
<clipPath id="clip0_24_481">
<rect width="220" height="220" fill="white"/>
</clipPath>
</defs>
</svg>
